<?xml version="1.0" encoding="utf-8"?>
<!-- Generator: Adobe Illustrator 16.0.0, SVG Export Plug-In . SVG Version: 6.00 Build 0)  -->
<!DOCTYPE svg PUBLIC "-//W3C//DTD SVG 1.1//EN" "http://www.w3.org/Graphics/SVG/1.1/DTD/svg11.dtd">
<svg version="1.1" id="Layer_1" xmlns="http://www.w3.org/2000/svg" xmlns:xlink="http://www.w3.org/1999/xlink" x="0px" y="0px"
	 width="504.286px" height="492.857px" viewBox="0 0 504.286 492.857" enable-background="new 0 0 504.286 492.857"
	 xml:space="preserve">
<g>
	<g>
		<line fill="none" stroke="#000000" stroke-miterlimit="10" x1="56.214" y1="450.929" x2="473.786" y2="450.929"/>
		<g>
			<g>
				<line fill="none" stroke="#000000" stroke-miterlimit="10" x1="56.214" y1="450.929" x2="56.214" y2="440.49"/>
				<line fill="none" stroke="#000000" stroke-miterlimit="10" x1="139.729" y1="450.929" x2="139.729" y2="440.49"/>
				<line fill="none" stroke="#000000" stroke-miterlimit="10" x1="223.243" y1="450.929" x2="223.243" y2="440.49"/>
				<line fill="none" stroke="#000000" stroke-miterlimit="10" x1="306.757" y1="450.929" x2="306.757" y2="440.49"/>
				<line fill="none" stroke="#000000" stroke-miterlimit="10" x1="390.271" y1="450.929" x2="390.271" y2="440.49"/>
				<line fill="none" stroke="#000000" stroke-miterlimit="10" x1="473.786" y1="450.929" x2="473.786" y2="440.49"/>
			</g>
			<g>
			</g>
		</g>
	</g>
	<g>
		<g>
			<text transform="matrix(1 0 0 1 39.6484 458.269)" font-family="'MyriadPro-Regular'" font-size="19.5737">0</text>
			<text transform="matrix(1 0 0 1 39.6484 398.6157)" font-family="'MyriadPro-Regular'" font-size="19.5737">5</text>
			<text transform="matrix(1 0 0 1 29.6074 338.9624)" font-family="'MyriadPro-Regular'" font-size="19.5737">10</text>
			<text transform="matrix(1 0 0 1 29.6074 279.3091)" font-family="'MyriadPro-Regular'" font-size="19.5737">15</text>
			<text transform="matrix(1 0 0 1 29.6074 219.6567)" font-family="'MyriadPro-Regular'" font-size="19.5737">20</text>
			<text transform="matrix(1 0 0 1 29.6074 160.0034)" font-family="'MyriadPro-Regular'" font-size="19.5737">25</text>
			<text transform="matrix(1 0 0 1 29.6074 100.3506)" font-family="'MyriadPro-Regular'" font-size="19.5737">30</text>
			<text transform="matrix(1 0 0 1 29.6074 40.6973)" font-family="'MyriadPro-Regular'" font-size="19.5737">35</text>
		</g>
		<line fill="none" stroke="#000000" stroke-miterlimit="10" x1="56.214" y1="450.929" x2="56.214" y2="33.357"/>
		<g>
			<g>
				<line fill="none" stroke="#000000" stroke-miterlimit="10" x1="56.214" y1="450.929" x2="66.653" y2="450.929"/>
				<line fill="none" stroke="#000000" stroke-miterlimit="10" x1="56.214" y1="391.276" x2="66.653" y2="391.276"/>
				<line fill="none" stroke="#000000" stroke-miterlimit="10" x1="56.214" y1="331.623" x2="66.653" y2="331.623"/>
				<line fill="none" stroke="#000000" stroke-miterlimit="10" x1="56.214" y1="271.969" x2="66.653" y2="271.969"/>
				<line fill="none" stroke="#000000" stroke-miterlimit="10" x1="56.214" y1="212.316" x2="66.653" y2="212.316"/>
				<line fill="none" stroke="#000000" stroke-miterlimit="10" x1="56.214" y1="152.663" x2="66.653" y2="152.663"/>
				<line fill="none" stroke="#000000" stroke-miterlimit="10" x1="56.214" y1="93.01" x2="66.653" y2="93.01"/>
				<line fill="none" stroke="#000000" stroke-miterlimit="10" x1="56.214" y1="33.357" x2="66.653" y2="33.357"/>
			</g>
			<g>
			</g>
		</g>
	</g>
	<g>
		<g>
			<polygon stroke="#000000" stroke-width="0.5" stroke-miterlimit="10" points="432.029,450.929 97.971,450.929 97.971,403.207 
				181.485,415.137 265,403.207 348.515,69.149 432.029,415.137 			"/>
		</g>
	</g>
	<g>
		<g>
		</g>
	</g>
	<g>
		<text transform="matrix(1 0 0 1 408.3252 472.1343)"><tspan x="0" y="0" font-family="'MyriadPro-Regular'" font-size="19.5737">A</tspan><tspan x="11.921" y="0" font-family="'MyriadPro-Regular'" font-size="19.5737">r</tspan><tspan x="18.125" y="0" font-family="'MyriadPro-Regular'" font-size="19.5737">ea5</tspan></text>
		<text transform="matrix(1 0 0 1 324.8105 472.1343)"><tspan x="0" y="0" font-family="'MyriadPro-Regular'" font-size="19.5737">A</tspan><tspan x="11.921" y="0" font-family="'MyriadPro-Regular'" font-size="19.5737">r</tspan><tspan x="18.125" y="0" font-family="'MyriadPro-Regular'" font-size="19.5737">ea4</tspan></text>
		<text transform="matrix(1 0 0 1 241.2964 472.1343)"><tspan x="0" y="0" font-family="'MyriadPro-Regular'" font-size="19.5737">A</tspan><tspan x="11.92" y="0" font-family="'MyriadPro-Regular'" font-size="19.5737">r</tspan><tspan x="18.125" y="0" font-family="'MyriadPro-Regular'" font-size="19.5737">ea3</tspan></text>
		<text transform="matrix(1 0 0 1 157.7822 472.1343)"><tspan x="0" y="0" font-family="'MyriadPro-Regular'" font-size="19.5737">A</tspan><tspan x="11.92" y="0" font-family="'MyriadPro-Regular'" font-size="19.5737">r</tspan><tspan x="18.125" y="0" font-family="'MyriadPro-Regular'" font-size="19.5737">ea2</tspan></text>
		<text transform="matrix(1 0 0 1 74.2676 472.1343)"><tspan x="0" y="0" font-family="'MyriadPro-Regular'" font-size="19.5737">A</tspan><tspan x="11.92" y="0" font-family="'MyriadPro-Regular'" font-size="19.5737">r</tspan><tspan x="18.125" y="0" font-family="'MyriadPro-Regular'" font-size="19.5737">ea1</tspan></text>
	</g>
</g>
</svg>
