<?xml version="1.0" encoding="utf-8"?>
<!-- Generator: Adobe Illustrator 16.0.0, SVG Export Plug-In . SVG Version: 6.00 Build 0)  -->
<!DOCTYPE svg PUBLIC "-//W3C//DTD SVG 1.1//EN" "http://www.w3.org/Graphics/SVG/1.1/DTD/svg11.dtd">
<svg version="1.1" id="Layer_1" xmlns="http://www.w3.org/2000/svg" xmlns:xlink="http://www.w3.org/1999/xlink" x="0px" y="0px"
	 width="478.571px" height="480px" viewBox="0 0 478.571 480" enable-background="new 0 0 478.571 480" xml:space="preserve">
<g>
	<g>
		<line fill="none" stroke="#000000" stroke-miterlimit="10" x1="36.715" y1="447.572" x2="461.858" y2="447.572"/>
		<g>
			<g>
				<line fill="none" stroke="#000000" stroke-miterlimit="10" x1="36.715" y1="447.572" x2="36.715" y2="436.943"/>
				<line fill="none" stroke="#000000" stroke-miterlimit="10" x1="121.743" y1="447.572" x2="121.743" y2="436.943"/>
				<line fill="none" stroke="#000000" stroke-miterlimit="10" x1="206.772" y1="447.572" x2="206.772" y2="436.943"/>
				<line fill="none" stroke="#000000" stroke-miterlimit="10" x1="291.802" y1="447.572" x2="291.802" y2="436.943"/>
				<line fill="none" stroke="#000000" stroke-miterlimit="10" x1="376.829" y1="447.572" x2="376.829" y2="436.943"/>
				<line fill="none" stroke="#000000" stroke-miterlimit="10" x1="461.858" y1="447.572" x2="461.858" y2="436.943"/>
			</g>
			<g>
			</g>
		</g>
	</g>
	<g>
		<g>
			<text transform="matrix(1 0 0 1 19.8486 455.0454)" font-family="'MyriadPro-Regular'" font-size="19.9286">0</text>
			<text transform="matrix(1 0 0 1 19.8486 370.0171)" font-family="'MyriadPro-Regular'" font-size="19.9286">5</text>
			<text transform="matrix(1 0 0 1 9.6255 284.9888)" font-family="'MyriadPro-Regular'" font-size="19.9286">10</text>
			<text transform="matrix(1 0 0 1 9.6255 199.9595)" font-family="'MyriadPro-Regular'" font-size="19.9286">15</text>
			<text transform="matrix(1 0 0 1 9.6255 114.9307)" font-family="'MyriadPro-Regular'" font-size="19.9286">20</text>
			<text transform="matrix(1 0 0 1 9.6255 29.9023)" font-family="'MyriadPro-Regular'" font-size="19.9286">25</text>
		</g>
		<line fill="none" stroke="#000000" stroke-miterlimit="10" x1="36.715" y1="447.572" x2="36.715" y2="22.429"/>
		<g>
			<g>
				<line fill="none" stroke="#000000" stroke-miterlimit="10" x1="36.715" y1="447.572" x2="47.343" y2="447.572"/>
				<line fill="none" stroke="#000000" stroke-miterlimit="10" x1="36.715" y1="362.542" x2="47.343" y2="362.542"/>
				<line fill="none" stroke="#000000" stroke-miterlimit="10" x1="36.715" y1="277.515" x2="47.343" y2="277.515"/>
				<line fill="none" stroke="#000000" stroke-miterlimit="10" x1="36.715" y1="192.486" x2="47.343" y2="192.486"/>
				<line fill="none" stroke="#000000" stroke-miterlimit="10" x1="36.715" y1="107.458" x2="47.343" y2="107.458"/>
				<line fill="none" stroke="#000000" stroke-miterlimit="10" x1="36.715" y1="22.429" x2="47.343" y2="22.429"/>
			</g>
			<g>
			</g>
		</g>
	</g>
	<g>
		<g>
			<g>
				<rect x="48.619" y="22.429" stroke="#000000" stroke-width="0.5" stroke-miterlimit="10" width="61.221" height="425.143"/>
				<rect x="133.647" y="192.486" stroke="#000000" stroke-width="0.5" stroke-miterlimit="10" width="61.221" height="255.085"/>
				<rect x="218.676" y="22.429" stroke="#000000" stroke-width="0.5" stroke-miterlimit="10" width="61.221" height="425.143"/>
				<rect x="303.706" y="107.458" stroke="#000000" stroke-width="0.5" stroke-miterlimit="10" width="61.219" height="340.114"/>
				<rect x="388.733" y="277.515" stroke="#000000" stroke-width="0.5" stroke-miterlimit="10" width="61.221" height="170.057"/>
			</g>
		</g>
	</g>
	<g>
		<g>
		</g>
	</g>
	<g>
		<text transform="matrix(1 0 0 1 381.4102 469.1606)"><tspan x="0" y="0" font-family="'MyriadPro-Regular'" font-size="19.9286">C</tspan><tspan x="11.34" y="0" font-family="'MyriadPro-Regular'" font-size="19.9286">olumn5</tspan></text>
		<text transform="matrix(1 0 0 1 296.3818 469.1606)"><tspan x="0" y="0" font-family="'MyriadPro-Regular'" font-size="19.9286">C</tspan><tspan x="11.339" y="0" font-family="'MyriadPro-Regular'" font-size="19.9286">olumn4</tspan></text>
		<text transform="matrix(1 0 0 1 211.3525 469.1606)"><tspan x="0" y="0" font-family="'MyriadPro-Regular'" font-size="19.9286">C</tspan><tspan x="11.339" y="0" font-family="'MyriadPro-Regular'" font-size="19.9286">olumn3</tspan></text>
		<text transform="matrix(1 0 0 1 126.3237 469.1606)"><tspan x="0" y="0" font-family="'MyriadPro-Regular'" font-size="19.9286">C</tspan><tspan x="11.339" y="0" font-family="'MyriadPro-Regular'" font-size="19.9286">olumn2</tspan></text>
		<text transform="matrix(1 0 0 1 41.2954 469.1606)"><tspan x="0" y="0" font-family="'MyriadPro-Regular'" font-size="19.9286">C</tspan><tspan x="11.339" y="0" font-family="'MyriadPro-Regular'" font-size="19.9286">olumn1</tspan></text>
	</g>
</g>
</svg>
