<?xml version="1.0" encoding="utf-8"?>
<!-- Generator: Adobe Illustrator 16.0.0, SVG Export Plug-In . SVG Version: 6.00 Build 0)  -->
<!DOCTYPE svg PUBLIC "-//W3C//DTD SVG 1.1//EN" "http://www.w3.org/Graphics/SVG/1.1/DTD/svg11.dtd">
<svg version="1.1" id="Layer_1" xmlns="http://www.w3.org/2000/svg" xmlns:xlink="http://www.w3.org/1999/xlink" x="0px" y="0px"
	 width="477.143px" height="472.857px" viewBox="0 0 477.143 472.857" enable-background="new 0 0 477.143 472.857"
	 xml:space="preserve">
<rect x="84.714" y="71.429" fill="#A7A9AC" stroke="#000000" stroke-miterlimit="10" width="47.143" height="161.429"/>
<rect x="180.144" y="158.286" fill="#A7A9AC" stroke="#000000" stroke-miterlimit="10" width="47.144" height="161.429"/>
<rect x="282.286" y="98.286" fill="#A7A9AC" stroke="#000000" stroke-miterlimit="10" width="47.144" height="161.429"/>
<rect x="377.286" y="239" fill="#A7A9AC" stroke="#000000" stroke-miterlimit="10" width="47.144" height="161.429"/>
<line fill="none" stroke="#000000" stroke-miterlimit="10" x1="84.714" y1="194.286" x2="131.857" y2="194.286"/>
<line fill="none" stroke="#000000" stroke-miterlimit="10" x1="180.144" y1="232.857" x2="227.287" y2="232.857"/>
<line fill="none" stroke="#000000" stroke-miterlimit="10" x1="282.286" y1="152.143" x2="329.429" y2="152.143"/>
<line fill="none" stroke="#000000" stroke-miterlimit="10" x1="377.286" y1="354.286" x2="424.428" y2="354.286"/>
<line fill="none" stroke="#000000" stroke-miterlimit="10" x1="108.286" y1="71.429" x2="108.286" y2="40"/>
<line fill="none" stroke="#000000" stroke-miterlimit="10" x1="108.286" y1="232.857" x2="108.286" y2="259.715"/>
<line fill="none" stroke="#000000" stroke-miterlimit="10" x1="131.857" y1="39.286" x2="84.714" y2="39.286"/>
<line fill="none" stroke="#000000" stroke-miterlimit="10" x1="131.857" y1="259.715" x2="84.714" y2="259.715"/>
<line fill="none" stroke="#000000" stroke-miterlimit="10" x1="203.715" y1="158.286" x2="203.715" y2="125.714"/>
<line fill="none" stroke="#000000" stroke-miterlimit="10" x1="203.715" y1="319.715" x2="203.715" y2="354.286"/>
<line fill="none" stroke="#000000" stroke-miterlimit="10" x1="305.858" y1="98.286" x2="305.857" y2="62.857"/>
<line fill="none" stroke="#000000" stroke-miterlimit="10" x1="305.858" y1="259.715" x2="305.858" y2="292.857"/>
<line fill="none" stroke="#000000" stroke-miterlimit="10" x1="400.857" y1="239" x2="400.857" y2="205.714"/>
<line fill="none" stroke="#000000" stroke-miterlimit="10" x1="400.857" y1="400.429" x2="400.857" y2="431.429"/>
<line fill="none" stroke="#000000" stroke-miterlimit="10" x1="227.287" y1="125.714" x2="180.144" y2="125.714"/>
<line fill="none" stroke="#000000" stroke-miterlimit="10" x1="227.287" y1="354.286" x2="180.144" y2="354.286"/>
<line fill="none" stroke="#000000" stroke-miterlimit="10" x1="329.429" y1="62.857" x2="282.286" y2="62.857"/>
<line fill="none" stroke="#000000" stroke-miterlimit="10" x1="329.429" y1="292.857" x2="281.784" y2="292.857"/>
<line fill="none" stroke="#000000" stroke-miterlimit="10" x1="424.428" y1="205.714" x2="377.286" y2="205.714"/>
<line fill="none" stroke="#000000" stroke-miterlimit="10" x1="424.428" y1="431.429" x2="377.286" y2="431.429"/>
<path fill="#1C75BC" d="M118.857,168.643c0,5.72-4.637,10.357-10.357,10.357l0,0c-5.72,0-10.357-4.637-10.357-10.357l0,0
	c0-5.72,4.637-10.357,10.357-10.357l0,0C114.22,158.286,118.857,162.923,118.857,168.643L118.857,168.643z"/>
<path fill="#1C75BC" d="M214.073,216.285c0,5.721-4.638,10.357-10.357,10.357l0,0c-5.72,0-10.357-4.637-10.357-10.357l0,0
	c0-5.72,4.637-10.357,10.357-10.357l0,0C209.435,205.928,214.073,210.565,214.073,216.285L214.073,216.285z"/>
<path fill="#1C75BC" d="M316.214,179c0,5.721-4.638,10.357-10.357,10.357l0,0c-5.72,0-10.357-4.637-10.357-10.357l0,0
	c0-5.72,4.638-10.357,10.357-10.357l0,0C311.577,168.643,316.214,173.28,316.214,179L316.214,179z"/>
<path fill="#1C75BC" d="M411.214,330.072c0,5.721-4.638,10.357-10.357,10.357l0,0c-5.72,0-10.357-4.637-10.357-10.357l0,0
	c0-5.72,4.638-10.357,10.357-10.357l0,0C406.577,319.715,411.214,324.353,411.214,330.072L411.214,330.072z"/>
</svg>
