<?xml version="1.0" encoding="utf-8"?>
<!-- Generator: Adobe Illustrator 16.0.0, SVG Export Plug-In . SVG Version: 6.00 Build 0)  -->
<!DOCTYPE svg PUBLIC "-//W3C//DTD SVG 1.1//EN" "http://www.w3.org/Graphics/SVG/1.1/DTD/svg11.dtd">
<svg version="1.1" id="Layer_1" xmlns="http://www.w3.org/2000/svg" xmlns:xlink="http://www.w3.org/1999/xlink" x="0px" y="0px"
	 width="568.995px" height="528.571px" viewBox="0 0 568.995 528.571" enable-background="new 0 0 568.995 528.571"
	 xml:space="preserve">
<rect x="91.429" y="27.572" fill="#ED1C24" width="34.286" height="40"/>
<rect x="25.714" y="27.572" fill="#FFF200" width="40" height="40"/>
<rect x="25.714" y="98.429" fill="#00A651" width="40" height="40"/>
<rect x="25.714" y="166" fill="#00AEEF" width="40" height="40"/>
<rect x="25.714" y="227.429" fill="#2E3192" width="40" height="40"/>
<rect x="25.714" y="295" fill="#EC008C" width="40" height="40"/>
<rect x="25.714" y="365.857" fill="#BE1E2D" width="40" height="40"/>
<rect x="88.572" y="98.429" fill="#EF4136" width="40" height="40"/>
<line fill="none" stroke="#ED1C24" stroke-width="3" stroke-miterlimit="10" x1="52.857" y1="501.429" x2="122.857" y2="335"/>
<line fill="none" stroke="#ED1C24" stroke-width="3" stroke-miterlimit="10" x1="122.857" y1="335" x2="181.786" y2="393.928"/>
<line fill="none" stroke="#ED1C24" stroke-width="3" stroke-miterlimit="10" x1="181.786" y1="393.928" x2="300.714" y2="274.999"/>
<line fill="none" stroke="#ED1C24" stroke-width="3" stroke-miterlimit="10" x1="300.714" y1="274.999" x2="373.661" y2="347.945"/>
<line fill="none" stroke="#ED1C24" stroke-width="3" stroke-miterlimit="10" x1="375" y1="347.945" x2="448.143" y2="274.803"/>
<line fill="none" stroke="#FFF200" stroke-width="3" stroke-miterlimit="10" x1="52.857" y1="501.429" x2="142.857" y2="166"/>
<line fill="none" stroke="#FFF200" stroke-width="3" stroke-miterlimit="10" x1="142.857" y1="166" x2="290" y2="385.857"/>
<line fill="none" stroke="#FFF200" stroke-width="3" stroke-miterlimit="10" x1="290" y1="385.857" x2="354.286" y2="241.428"/>
<line fill="none" stroke="#FFF200" stroke-width="3" stroke-miterlimit="10" x1="354.286" y1="241.428" x2="457.143" y2="335"/>
<line fill="none" stroke="#FFF200" stroke-width="3" stroke-miterlimit="10" x1="457.143" y1="335" x2="490" y2="220"/>
<line fill="none" stroke="#FFF200" stroke-width="3" stroke-miterlimit="10" x1="490" y1="220" x2="511.428" y2="220"/>
<line fill="none" stroke="#00A651" stroke-width="3" stroke-miterlimit="10" x1="52.857" y1="494.285" x2="142.857" y2="258.802"/>
<line fill="none" stroke="#00A651" stroke-width="3" stroke-miterlimit="10" x1="142.857" y1="258.802" x2="247.143" y2="405.857"/>
<line fill="none" stroke="#00A651" stroke-width="3" stroke-miterlimit="10" x1="241.25" y1="397.548" x2="271.354" y2="206"/>
<line fill="none" stroke="#00A651" stroke-width="3" stroke-miterlimit="10" x1="271.354" y1="206" x2="435.714" y2="364.464"/>
<line fill="none" stroke="#00A651" stroke-width="3" stroke-miterlimit="10" x1="435.714" y1="364.464" x2="531.428" y2="258.802"/>
<line fill="none" stroke="#00AEEF" stroke-width="3" stroke-miterlimit="10" x1="52.857" y1="494.285" x2="216.429" y2="174.286"/>
<line fill="none" stroke="#00AEEF" stroke-width="3" stroke-miterlimit="10" x1="216.429" y1="174.286" x2="344.286" y2="385.857"/>
<line fill="none" stroke="#2E3192" stroke-width="3" stroke-miterlimit="10" x1="344.286" y1="385.857" x2="531.428" y2="247.429"/>
<line fill="none" stroke="#2E3192" stroke-width="3" stroke-miterlimit="10" x1="52.857" y1="494.285" x2="201.429" y2="295"/>
<line fill="none" stroke="#2E3192" stroke-width="3" stroke-miterlimit="10" x1="201.429" y1="295" x2="290" y2="335"/>
<line fill="none" stroke="#2E3192" stroke-width="3" stroke-miterlimit="10" x1="290" y1="335" x2="411.572" y2="227.429"/>
<line fill="none" stroke="#2E3192" stroke-width="3" stroke-miterlimit="10" x1="411.572" y1="227.429" x2="448.143" y2="274.803"/>
<line fill="none" stroke="#EC008C" stroke-width="3" stroke-miterlimit="10" x1="448.143" y1="274.803" x2="531.428" y2="194.286"/>
<line fill="none" stroke="#EC008C" stroke-width="3" stroke-miterlimit="10" x1="52.857" y1="494.285" x2="134.643" y2="393.928"/>
<line fill="none" stroke="#EC008C" stroke-width="3" stroke-miterlimit="10" x1="134.643" y1="393.928" x2="152.322" y2="473.428"/>
<line fill="none" stroke="#EC008C" stroke-width="3" stroke-miterlimit="10" x1="152.322" y1="473.428" x2="195" y2="405.857"/>
<line fill="none" stroke="#EC008C" stroke-width="3" stroke-miterlimit="10" x1="195" y1="405.857" x2="228.572" y2="461.429"/>
<line fill="none" stroke="#EC008C" stroke-width="3" stroke-miterlimit="10" x1="228.572" y1="461.429" x2="290" y2="397.548"/>
<line fill="none" stroke="#EC008C" stroke-width="3" stroke-miterlimit="10" x1="290" y1="397.548" x2="354.286" y2="453.428"/>
<line fill="none" stroke="#EC008C" stroke-width="3" stroke-miterlimit="10" x1="354.286" y1="453.428" x2="405.714" y2="394.643"/>
<line fill="none" stroke="#EC008C" stroke-width="3" stroke-miterlimit="10" x1="405.714" y1="394.643" x2="467.143" y2="453.428"/>
<line fill="none" stroke="#BE1E2D" stroke-width="3" stroke-miterlimit="10" x1="467.143" y1="453.428" x2="511.428" y2="385.857"/>
<line fill="none" stroke="#BE1E2D" stroke-width="3" stroke-miterlimit="10" x1="52.857" y1="501.429" x2="108.572" y2="453.428"/>
<line fill="none" stroke="#BE1E2D" stroke-width="3" stroke-miterlimit="10" x1="108.572" y1="453.428" x2="181.786" y2="477.428"/>
<line fill="none" stroke="#BE1E2D" stroke-width="3" stroke-miterlimit="10" x1="181.786" y1="477.428" x2="241.25" y2="424.035"/>
<line fill="none" stroke="#BE1E2D" stroke-width="3" stroke-miterlimit="10" x1="241.25" y1="424.035" x2="280.357" y2="450.731"/>
<line fill="none" stroke="#BE1E2D" stroke-width="3" stroke-miterlimit="10" x1="280.357" y1="450.731" x2="344.286" y2="419.643"/>
<line fill="none" stroke="#BE1E2D" stroke-width="3" stroke-miterlimit="10" x1="344.286" y1="419.643" x2="411.572" y2="450.731"/>
<line fill="none" stroke="#BE1E2D" stroke-width="3" stroke-miterlimit="10" x1="411.572" y1="450.731" x2="457.143" y2="405.857"/>
<line fill="none" stroke="#EF4136" stroke-width="3" stroke-miterlimit="10" x1="457.143" y1="405.857" x2="524.286" y2="444.106"/>
<line fill="none" stroke="#EF4136" stroke-width="3" stroke-miterlimit="10" x1="52.857" y1="494.285" x2="201.429" y2="394.643"/>
<line fill="none" stroke="#EF4136" stroke-width="3" stroke-miterlimit="10" x1="201.429" y1="394.643" x2="300.714" y2="465.428"/>
<line fill="none" stroke="#EF4136" stroke-width="3" stroke-miterlimit="10" x1="300.714" y1="465.428" x2="385.714" y2="393.928"/>
<line fill="none" stroke="#EF4136" stroke-width="3" stroke-miterlimit="10" x1="385.714" y1="393.928" x2="448.143" y2="453.428"/>
<line fill="none" stroke="#EF4136" stroke-width="3" stroke-miterlimit="10" x1="448.143" y1="453.428" x2="524.286" y2="322.857"/>
<line opacity="0.5" fill="none" stroke="#000000" stroke-width="5" stroke-miterlimit="10" x1="40.958" y1="509.401" x2="501.75" y2="94.147"/>
<line opacity="0.5" fill="none" stroke="#000000" stroke-width="5" stroke-miterlimit="10" x1="501.75" y1="94.147" x2="448.143" y2="98.429"/>
<line opacity="0.5" fill="none" stroke="#000000" stroke-width="5" stroke-miterlimit="10" x1="501.75" y1="94.147" x2="500.714" y2="142.857"/>
</svg>
