<?xml version="1.0" encoding="utf-8"?>
<!-- Generator: Adobe Illustrator 16.0.0, SVG Export Plug-In . SVG Version: 6.00 Build 0)  -->
<!DOCTYPE svg PUBLIC "-//W3C//DTD SVG 1.1//EN" "http://www.w3.org/Graphics/SVG/1.1/DTD/svg11.dtd">
<svg version="1.1" id="Layer_1" xmlns="http://www.w3.org/2000/svg" xmlns:xlink="http://www.w3.org/1999/xlink" x="0px" y="0px"
	 width="390px" height="488.571px" viewBox="0 0 390 488.571" enable-background="new 0 0 390 488.571" xml:space="preserve">
<rect x="25.715" y="18.088" fill="#E6E7E8" stroke="#000000" stroke-width="8" stroke-miterlimit="10" width="345.714" height="448.692"/>
<rect x="25.715" y="18.088" fill="#757679" width="345.714" height="74.77"/>
<rect x="25.715" y="92.857" fill="#D1D3D4" width="345.714" height="74.77"/>
<rect x="25.715" y="167.627" fill="#E6E7E8" width="345.714" height="74.77"/>
<rect x="25.714" y="242.472" fill="#D1D3D4" width="345.714" height="74.77"/>
<rect x="24.715" y="317.242" fill="#E6E7E8" width="345.714" height="74.77"/>
<rect x="25.715" y="392.011" fill="#D1D3D4" width="345.714" height="74.77"/>
<rect x="111.572" y="40.473" fill="none" width="180" height="30"/>
<text transform="matrix(1 0 0 1 111.5718 66.0322)" font-family="'MyriadPro-Regular'" font-size="36">DATA </text>
<rect x="179.357" y="110.957" fill="none" width="36.429" height="38.571"/>
<text transform="matrix(1 0 0 1 179.3574 136.5161)" font-family="'MyriadPro-Regular'" font-size="36">E1</text>
<rect x="179.357" y="185.726" fill="none" width="36.429" height="38.572"/>
<text transform="matrix(1 0 0 1 179.3574 211.2856)" font-family="'MyriadPro-Regular'" font-size="36">E1</text>
<rect x="179.357" y="259.813" fill="none" width="36.429" height="38.572"/>
<text transform="matrix(1 0 0 1 179.3574 285.373)" font-family="'MyriadPro-Regular'" font-size="36">E1</text>
<rect x="179.357" y="335.342" fill="none" width="36.429" height="38.571"/>
<text transform="matrix(1 0 0 1 179.3574 360.9014)" font-family="'MyriadPro-Regular'" font-size="36">E1</text>
<rect x="180.358" y="410.11" fill="none" width="36.428" height="38.572"/>
<text transform="matrix(1 0 0 1 180.3579 435.6699)" font-family="'MyriadPro-Regular'" font-size="36">E1</text>
</svg>
