<?xml version="1.0" encoding="utf-8"?>
<!-- Generator: Adobe Illustrator 16.0.0, SVG Export Plug-In . SVG Version: 6.00 Build 0)  -->
<!DOCTYPE svg PUBLIC "-//W3C//DTD SVG 1.1//EN" "http://www.w3.org/Graphics/SVG/1.1/DTD/svg11.dtd">
<svg version="1.1" id="Layer_1" xmlns="http://www.w3.org/2000/svg" xmlns:xlink="http://www.w3.org/1999/xlink" x="0px" y="0px"
	 width="455.714px" height="411.429px" viewBox="0 0 455.714 411.429" enable-background="new 0 0 455.714 411.429"
	 xml:space="preserve">
<line fill="none" stroke="#000000" stroke-width="10" stroke-miterlimit="10" x1="37" y1="32.429" x2="37" y2="388.144"/>
<line fill="none" stroke="#662D91" stroke-width="10" stroke-miterlimit="10" x1="55.571" y1="338.572" x2="55.571" y2="387.144"/>
<line fill="none" stroke="#662D91" stroke-width="10" stroke-miterlimit="10" x1="79.857" y1="285.715" x2="79.857" y2="387.144"/>
<line fill="none" stroke="#662D91" stroke-width="10" stroke-miterlimit="10" x1="108.429" y1="320.001" x2="108.429" y2="387.144"/>
<line fill="none" stroke="#662D91" stroke-width="10" stroke-miterlimit="10" x1="142.714" y1="209.286" x2="142.714" y2="387.144"/>
<line fill="none" stroke="#662D91" stroke-width="10" stroke-miterlimit="10" x1="174.143" y1="151.429" x2="174.143" y2="387.144"/>
<line fill="none" stroke="#662D91" stroke-width="10" stroke-miterlimit="10" x1="208.429" y1="209.286" x2="208.429" y2="387.144"/>
<line fill="none" stroke="#662D91" stroke-width="10" stroke-miterlimit="10" x1="246.926" y1="107.144" x2="246.926" y2="387.144"/>
<line fill="none" stroke="#662D91" stroke-width="10" stroke-miterlimit="10" x1="268.428" y1="338.572" x2="268.428" y2="387.144"/>
<line fill="none" stroke="#662D91" stroke-width="10" stroke-miterlimit="10" x1="298.428" y1="307.144" x2="298.428" y2="387.144"/>
<line fill="none" stroke="#662D91" stroke-width="10" stroke-miterlimit="10" x1="328.428" y1="320.001" x2="328.428" y2="387.144"/>
<line fill="none" stroke="#662D91" stroke-width="10" stroke-miterlimit="10" x1="357" y1="144.287" x2="357" y2="387.144"/>
<line fill="none" stroke="#662D91" stroke-width="10" stroke-miterlimit="10" x1="398.857" y1="231.43" x2="398.857" y2="387.144"/>
<line fill="none" stroke="#000000" stroke-width="10" stroke-miterlimit="10" x1="32" y1="387.144" x2="430.572" y2="387.144"/>
</svg>
