<?xml version="1.0" encoding="utf-8"?>
<!-- Generator: Adobe Illustrator 16.0.0, SVG Export Plug-In . SVG Version: 6.00 Build 0)  -->
<!DOCTYPE svg PUBLIC "-//W3C//DTD SVG 1.1//EN" "http://www.w3.org/Graphics/SVG/1.1/DTD/svg11.dtd">
<svg version="1.1" id="Layer_1" xmlns="http://www.w3.org/2000/svg" xmlns:xlink="http://www.w3.org/1999/xlink" x="0px" y="0px"
	 width="497.143px" height="480px" viewBox="0 0 497.143 480" enable-background="new 0 0 497.143 480" xml:space="preserve">
<g>
	<g>
		<line fill="none" stroke="#000000" stroke-miterlimit="10" x1="63.857" y1="433.286" x2="469" y2="433.286"/>
		<g>
			<g>
				<line fill="none" stroke="#000000" stroke-miterlimit="10" x1="63.857" y1="433.286" x2="63.857" y2="423.157"/>
				<line fill="none" stroke="#000000" stroke-miterlimit="10" x1="144.886" y1="433.286" x2="144.886" y2="423.157"/>
				<line fill="none" stroke="#000000" stroke-miterlimit="10" x1="225.915" y1="433.286" x2="225.915" y2="423.157"/>
				<line fill="none" stroke="#000000" stroke-miterlimit="10" x1="306.943" y1="433.286" x2="306.943" y2="423.157"/>
				<line fill="none" stroke="#000000" stroke-miterlimit="10" x1="387.972" y1="433.286" x2="387.972" y2="423.157"/>
				<line fill="none" stroke="#000000" stroke-miterlimit="10" x1="469" y1="433.286" x2="469" y2="423.157"/>
			</g>
			<g>
			</g>
		</g>
	</g>
	<g>
		<g>
			<text transform="matrix(1 0 0 1 34.1118 440.4082)" font-family="'MyriadPro-Regular'" font-size="18.9911">1.0</text>
			<text transform="matrix(1 0 0 1 34.1118 372.8838)" font-family="'MyriadPro-Regular'" font-size="18.9911">1.5</text>
			<text transform="matrix(1 0 0 1 34.1118 305.3604)" font-family="'MyriadPro-Regular'" font-size="18.9911">2.0</text>
			<text transform="matrix(1 0 0 1 34.1118 237.8359)" font-family="'MyriadPro-Regular'" font-size="18.9911">2.5</text>
			<text transform="matrix(1 0 0 1 34.1118 170.3115)" font-family="'MyriadPro-Regular'" font-size="18.9911">3.0</text>
			<text transform="matrix(1 0 0 1 34.1118 102.7871)" font-family="'MyriadPro-Regular'" font-size="18.9911">3.5</text>
			<text transform="matrix(1 0 0 1 34.1118 35.2632)" font-family="'MyriadPro-Regular'" font-size="18.9911">4.0</text>
		</g>
		<line fill="none" stroke="#000000" stroke-miterlimit="10" x1="63.857" y1="433.286" x2="63.857" y2="28.142"/>
		<g>
			<g>
				<line fill="none" stroke="#000000" stroke-miterlimit="10" x1="63.857" y1="433.286" x2="73.986" y2="433.286"/>
				<line fill="none" stroke="#000000" stroke-miterlimit="10" x1="63.857" y1="365.762" x2="73.986" y2="365.762"/>
				<line fill="none" stroke="#000000" stroke-miterlimit="10" x1="63.857" y1="298.238" x2="73.986" y2="298.238"/>
				<line fill="none" stroke="#000000" stroke-miterlimit="10" x1="63.857" y1="230.714" x2="73.986" y2="230.714"/>
				<line fill="none" stroke="#000000" stroke-miterlimit="10" x1="63.857" y1="163.19" x2="73.986" y2="163.19"/>
				<line fill="none" stroke="#000000" stroke-miterlimit="10" x1="63.857" y1="95.666" x2="73.986" y2="95.666"/>
				<line fill="none" stroke="#000000" stroke-miterlimit="10" x1="63.857" y1="28.142" x2="73.986" y2="28.142"/>
			</g>
			<g>
			</g>
		</g>
	</g>
	<g>
		<g>
			<g>
				
					<line fill="none" stroke="#000000" stroke-width="2" stroke-linecap="round" stroke-miterlimit="10" x1="185.4" y1="298.238" x2="104.372" y2="433.286"/>
				
					<line fill="none" stroke="#000000" stroke-width="2" stroke-linecap="round" stroke-miterlimit="10" x1="266.429" y1="163.19" x2="185.4" y2="298.238"/>
				
					<line fill="none" stroke="#000000" stroke-width="2" stroke-linecap="round" stroke-miterlimit="10" x1="347.457" y1="163.19" x2="266.429" y2="163.19"/>
				
					<line fill="none" stroke="#000000" stroke-width="2" stroke-linecap="round" stroke-miterlimit="10" x1="428.485" y1="28.142" x2="347.457" y2="163.19"/>
			</g>
		</g>
	</g>
	<g>
		<g>
			<g>
				<rect x="101.372" y="430.286" stroke="#000000" stroke-width="0.5" stroke-miterlimit="10" width="6" height="6"/>
				<rect x="182.4" y="295.238" stroke="#000000" stroke-width="0.5" stroke-miterlimit="10" width="6" height="6"/>
				<rect x="263.429" y="160.19" stroke="#000000" stroke-width="0.5" stroke-miterlimit="10" width="6" height="6"/>
				<rect x="344.457" y="160.19" stroke="#000000" stroke-width="0.5" stroke-miterlimit="10" width="6" height="6"/>
				<rect x="425.485" y="25.142" stroke="#000000" stroke-width="0.5" stroke-miterlimit="10" width="6" height="6"/>
			</g>
		</g>
	</g>
	<g>
		<text transform="matrix(1 0 0 1 406.8848 453.8594)" font-family="'MyriadPro-Regular'" font-size="18.9911">Line5</text>
		<text transform="matrix(1 0 0 1 325.8564 453.8594)" font-family="'MyriadPro-Regular'" font-size="18.9911">Line4</text>
		<text transform="matrix(1 0 0 1 244.8267 453.8594)" font-family="'MyriadPro-Regular'" font-size="18.9911">Line3</text>
		<text transform="matrix(1 0 0 1 163.7979 453.8594)" font-family="'MyriadPro-Regular'" font-size="18.9911">Line2</text>
		<text transform="matrix(1 0 0 1 82.7695 453.8594)" font-family="'MyriadPro-Regular'" font-size="18.9911">Line1</text>
	</g>
</g>
</svg>
