<?xml version="1.0" encoding="utf-8"?>
<!-- Generator: Adobe Illustrator 16.0.0, SVG Export Plug-In . SVG Version: 6.00 Build 0)  -->
<!DOCTYPE svg PUBLIC "-//W3C//DTD SVG 1.1//EN" "http://www.w3.org/Graphics/SVG/1.1/DTD/svg11.dtd">
<svg version="1.1" id="Layer_1" xmlns="http://www.w3.org/2000/svg" xmlns:xlink="http://www.w3.org/1999/xlink" x="0px" y="0px"
	 width="505.715px" height="458.571px" viewBox="0 0 505.715 458.571" enable-background="new 0 0 505.715 458.571"
	 xml:space="preserve">
<circle stroke="#000000" stroke-miterlimit="10" cx="96.429" cy="363.571" r="6.429"/>
<circle stroke="#000000" stroke-miterlimit="10" cx="142.143" cy="340" r="6.429"/>
<circle stroke="#000000" stroke-miterlimit="10" cx="135.714" cy="300.714" r="6.429"/>
<circle stroke="#000000" stroke-miterlimit="10" cx="172.286" cy="312.286" r="6.429"/>
<circle stroke="#000000" stroke-miterlimit="10" cx="218" cy="288.715" r="6.428"/>
<circle stroke="#000000" stroke-miterlimit="10" cx="211.572" cy="249.429" r="6.429"/>
<circle stroke="#000000" stroke-miterlimit="10" cx="164.929" cy="249.356" r="6.429"/>
<circle stroke="#000000" stroke-miterlimit="10" cx="210.643" cy="225.785" r="6.429"/>
<circle stroke="#000000" stroke-miterlimit="10" cx="204.214" cy="186.499" r="6.429"/>
<circle stroke="#000000" stroke-miterlimit="10" cx="41.429" cy="417.856" r="6.429"/>
<circle stroke="#000000" stroke-miterlimit="10" cx="286.5" cy="174.5" r="6.429"/>
<circle stroke="#000000" stroke-miterlimit="10" cx="280.072" cy="135.214" r="6.429"/>
<circle stroke="#000000" stroke-miterlimit="10" cx="253.644" cy="301.5" r="6.429"/>
<circle stroke="#000000" stroke-miterlimit="10" cx="299.357" cy="277.929" r="6.429"/>
<circle stroke="#000000" stroke-miterlimit="10" cx="292.93" cy="238.643" r="6.429"/>
<circle stroke="#000000" stroke-miterlimit="10" cx="431.428" cy="251.5" r="6.429"/>
<circle stroke="#000000" stroke-miterlimit="10" cx="375.215" cy="226.644" r="6.429"/>
<circle stroke="#000000" stroke-miterlimit="10" cx="368.787" cy="187.357" r="6.429"/>
<circle stroke="#000000" stroke-miterlimit="10" cx="268.716" cy="231.571" r="6.429"/>
<circle stroke="#000000" stroke-miterlimit="10" cx="314.43" cy="208" r="6.429"/>
<circle stroke="#000000" stroke-miterlimit="10" cx="308.002" cy="168.714" r="6.429"/>
<circle stroke="#000000" stroke-miterlimit="10" cx="344.573" cy="180.286" r="6.429"/>
<circle stroke="#000000" stroke-miterlimit="10" cx="431.428" cy="159.267" r="6.429"/>
<circle stroke="#000000" stroke-miterlimit="10" cx="383.859" cy="117.429" r="6.429"/>
<circle stroke="#000000" stroke-miterlimit="10" cx="218" cy="325.144" r="6.429"/>
<circle stroke="#000000" stroke-miterlimit="10" cx="247.215" cy="245.071" r="6.429"/>
<circle stroke="#000000" stroke-miterlimit="10" cx="178.715" cy="333.571" r="6.429"/>
<circle stroke="#000000" stroke-miterlimit="10" cx="431.428" cy="113.464" r="6.429"/>
<circle stroke="#000000" stroke-miterlimit="10" cx="425" cy="74.178" r="6.429"/>
<circle stroke="#000000" stroke-miterlimit="10" cx="79.429" cy="349.571" r="6.429"/>
<circle stroke="#000000" stroke-miterlimit="10" cx="125.143" cy="326" r="6.429"/>
<circle stroke="#000000" stroke-miterlimit="10" cx="118.714" cy="286.714" r="6.429"/>
<circle stroke="#000000" stroke-miterlimit="10" cx="155.286" cy="298.286" r="6.429"/>
<circle stroke="#000000" stroke-miterlimit="10" cx="201" cy="274.715" r="6.428"/>
<circle stroke="#000000" stroke-miterlimit="10" cx="194.572" cy="235.429" r="6.429"/>
<circle stroke="#000000" stroke-miterlimit="10" cx="147.929" cy="235.356" r="6.429"/>
<circle stroke="#000000" stroke-miterlimit="10" cx="193.643" cy="211.785" r="6.429"/>
<circle stroke="#000000" stroke-miterlimit="10" cx="187.214" cy="172.499" r="6.429"/>
<circle stroke="#000000" stroke-miterlimit="10" cx="223.786" cy="184.071" r="6.429"/>
<circle stroke="#000000" stroke-miterlimit="10" cx="269.5" cy="160.5" r="6.429"/>
<circle stroke="#000000" stroke-miterlimit="10" cx="263.072" cy="121.214" r="6.429"/>
<circle stroke="#000000" stroke-miterlimit="10" cx="236.644" cy="287.5" r="6.429"/>
<circle stroke="#000000" stroke-miterlimit="10" cx="282.357" cy="263.929" r="6.429"/>
<circle stroke="#000000" stroke-miterlimit="10" cx="275.93" cy="224.643" r="6.429"/>
<circle stroke="#000000" stroke-miterlimit="10" cx="312.501" cy="236.215" r="6.429"/>
<circle stroke="#000000" stroke-miterlimit="10" cx="358.215" cy="212.644" r="6.429"/>
<circle stroke="#000000" stroke-miterlimit="10" cx="351.787" cy="173.357" r="6.429"/>
<circle stroke="#000000" stroke-miterlimit="10" cx="251.716" cy="217.571" r="6.429"/>
<circle stroke="#000000" stroke-miterlimit="10" cx="297.43" cy="194" r="6.429"/>
<circle stroke="#000000" stroke-miterlimit="10" cx="291.002" cy="154.714" r="6.429"/>
<circle stroke="#000000" stroke-miterlimit="10" cx="327.573" cy="166.286" r="6.429"/>
<circle stroke="#000000" stroke-miterlimit="10" cx="373.287" cy="142.715" r="6.429"/>
<circle stroke="#000000" stroke-miterlimit="10" cx="366.859" cy="103.429" r="6.429"/>
<circle stroke="#000000" stroke-miterlimit="10" cx="201" cy="311.144" r="6.429"/>
<circle stroke="#000000" stroke-miterlimit="10" cx="230.215" cy="231.071" r="6.429"/>
<circle stroke="#000000" stroke-miterlimit="10" cx="161.715" cy="319.571" r="6.429"/>
<circle stroke="#000000" stroke-miterlimit="10" cx="414.428" cy="99.464" r="6.429"/>
<circle stroke="#000000" stroke-miterlimit="10" cx="408" cy="60.178" r="6.429"/>
<circle stroke="#000000" stroke-miterlimit="10" cx="84.216" cy="331.195" r="6.429"/>
<circle stroke="#000000" stroke-miterlimit="10" cx="129.931" cy="307.624" r="6.429"/>
<circle stroke="#000000" stroke-miterlimit="10" cx="123.502" cy="268.338" r="6.429"/>
<circle stroke="#000000" stroke-miterlimit="10" cx="160.074" cy="279.91" r="6.429"/>
<circle stroke="#000000" stroke-miterlimit="10" cx="205.788" cy="256.339" r="6.428"/>
<circle stroke="#000000" stroke-miterlimit="10" cx="199.36" cy="217.053" r="6.429"/>
<circle stroke="#000000" stroke-miterlimit="10" cx="152.716" cy="216.98" r="6.429"/>
<circle stroke="#000000" stroke-miterlimit="10" cx="198.431" cy="193.409" r="6.429"/>
<circle stroke="#000000" stroke-miterlimit="10" cx="465.715" cy="199.838" r="6.429"/>
<circle stroke="#000000" stroke-miterlimit="10" cx="228.574" cy="165.695" r="6.429"/>
<circle stroke="#000000" stroke-miterlimit="10" cx="274.287" cy="142.124" r="6.428"/>
<circle stroke="#000000" stroke-miterlimit="10" cx="314.43" cy="48.23" r="6.429"/>
<circle stroke="#000000" stroke-miterlimit="10" cx="241.431" cy="269.124" r="6.429"/>
<circle stroke="#000000" stroke-miterlimit="10" cx="287.145" cy="245.553" r="6.429"/>
<circle stroke="#000000" stroke-miterlimit="10" cx="280.717" cy="206.267" r="6.429"/>
<circle stroke="#000000" stroke-miterlimit="10" cx="317.289" cy="217.839" r="6.429"/>
<circle stroke="#000000" stroke-miterlimit="10" cx="363.002" cy="194.268" r="6.429"/>
<circle stroke="#000000" stroke-miterlimit="10" cx="356.574" cy="154.981" r="6.429"/>
<circle stroke="#000000" stroke-miterlimit="10" cx="256.503" cy="199.195" r="6.429"/>
<circle stroke="#000000" stroke-miterlimit="10" cx="302.217" cy="175.624" r="6.429"/>
<circle stroke="#000000" stroke-miterlimit="10" cx="295.789" cy="136.338" r="6.429"/>
<circle stroke="#000000" stroke-miterlimit="10" cx="332.361" cy="147.91" r="6.429"/>
<circle stroke="#000000" stroke-miterlimit="10" cx="378.074" cy="124.339" r="6.429"/>
<circle stroke="#000000" stroke-miterlimit="10" cx="371.646" cy="85.053" r="6.429"/>
<circle stroke="#000000" stroke-miterlimit="10" cx="205.788" cy="292.768" r="6.429"/>
<circle stroke="#000000" stroke-miterlimit="10" cx="235.002" cy="212.695" r="6.429"/>
<circle stroke="#000000" stroke-miterlimit="10" cx="166.502" cy="301.195" r="6.429"/>
<circle stroke="#000000" stroke-miterlimit="10" cx="419.215" cy="81.088" r="6.429"/>
<circle stroke="#000000" stroke-miterlimit="10" cx="412.787" cy="41.802" r="6.429"/>
<circle stroke="#000000" stroke-miterlimit="10" cx="79.429" cy="349.571" r="6.429"/>
<circle stroke="#000000" stroke-miterlimit="10" cx="125.143" cy="326" r="6.429"/>
<circle stroke="#000000" stroke-miterlimit="10" cx="118.714" cy="286.714" r="6.429"/>
<circle stroke="#000000" stroke-miterlimit="10" cx="155.286" cy="298.286" r="6.429"/>
<circle stroke="#000000" stroke-miterlimit="10" cx="201" cy="274.715" r="6.428"/>
<circle stroke="#000000" stroke-miterlimit="10" cx="194.572" cy="235.429" r="6.429"/>
<circle stroke="#000000" stroke-miterlimit="10" cx="147.929" cy="235.356" r="6.429"/>
<circle stroke="#000000" stroke-miterlimit="10" cx="193.643" cy="211.785" r="6.429"/>
<circle stroke="#000000" stroke-miterlimit="10" cx="187.214" cy="172.499" r="6.429"/>
<circle stroke="#000000" stroke-miterlimit="10" cx="223.786" cy="184.071" r="6.429"/>
<circle stroke="#000000" stroke-miterlimit="10" cx="269.5" cy="160.5" r="6.429"/>
<circle stroke="#000000" stroke-miterlimit="10" cx="267.072" cy="81.088" r="6.429"/>
<circle stroke="#000000" stroke-miterlimit="10" cx="236.644" cy="287.5" r="6.429"/>
<circle stroke="#000000" stroke-miterlimit="10" cx="282.357" cy="263.929" r="6.429"/>
<circle stroke="#000000" stroke-miterlimit="10" cx="275.93" cy="224.643" r="6.429"/>
<circle stroke="#000000" stroke-miterlimit="10" cx="312.501" cy="236.215" r="6.429"/>
<circle stroke="#000000" stroke-miterlimit="10" cx="358.215" cy="212.644" r="6.429"/>
<circle stroke="#000000" stroke-miterlimit="10" cx="351.787" cy="173.357" r="6.429"/>
<circle stroke="#000000" stroke-miterlimit="10" cx="251.716" cy="217.571" r="6.429"/>
<circle stroke="#000000" stroke-miterlimit="10" cx="297.43" cy="194" r="6.429"/>
<circle stroke="#000000" stroke-miterlimit="10" cx="291.002" cy="154.714" r="6.429"/>
<circle stroke="#000000" stroke-miterlimit="10" cx="327.573" cy="166.286" r="6.429"/>
<circle stroke="#000000" stroke-miterlimit="10" cx="373.287" cy="142.715" r="6.429"/>
<circle stroke="#000000" stroke-miterlimit="10" cx="366.859" cy="103.429" r="6.429"/>
<circle stroke="#000000" stroke-miterlimit="10" cx="201" cy="311.144" r="6.429"/>
<circle stroke="#000000" stroke-miterlimit="10" cx="166.502" cy="360.241" r="6.429"/>
<circle stroke="#000000" stroke-miterlimit="10" cx="161.715" cy="319.571" r="6.429"/>
<circle stroke="#000000" stroke-miterlimit="10" cx="414.428" cy="99.464" r="6.429"/>
<circle stroke="#000000" stroke-miterlimit="10" cx="408" cy="60.178" r="6.429"/>
<circle stroke="#000000" stroke-miterlimit="10" cx="73" cy="392.617" r="6.429"/>
<circle stroke="#000000" stroke-miterlimit="10" cx="123.072" cy="372.188" r="6.429"/>
<circle stroke="#000000" stroke-miterlimit="10" cx="127.859" cy="353.813" r="6.429"/>
<circle stroke="#000000" stroke-miterlimit="10" cx="123.072" cy="372.188" r="6.429"/>
<circle stroke="#000000" stroke-miterlimit="10" cx="255.429" cy="221.571" r="6.429"/>
<circle stroke="#000000" stroke-miterlimit="10" cx="238.429" cy="207.571" r="6.429"/>
<circle stroke="#000000" stroke-miterlimit="10" cx="243.216" cy="189.195" r="6.429"/>
<circle stroke="#000000" stroke-miterlimit="10" cx="112.286" cy="314.053" r="6.429"/>
</svg>
