<?xml version="1.0" encoding="utf-8"?>
<!-- Generator: Adobe Illustrator 16.0.0, SVG Export Plug-In . SVG Version: 6.00 Build 0)  -->
<!DOCTYPE svg PUBLIC "-//W3C//DTD SVG 1.1//EN" "http://www.w3.org/Graphics/SVG/1.1/DTD/svg11.dtd">
<svg version="1.1" xmlns="http://www.w3.org/2000/svg" xmlns:xlink="http://www.w3.org/1999/xlink" x="0px" y="0px"
	 width="508.57px" height="450px" viewBox="0 0 508.57 450" enable-background="new 0 0 508.57 450" xml:space="preserve">
<g id="Layer_1">
	<path fill="#E6E7E8" d="M508.57,438c0,6.627-5.543,12-12.383,12H12.383C5.544,450,0,444.627,0,438V12C0,5.373,5.544,0,12.383,0
		h483.805c6.84,0,12.383,5.373,12.383,12V438z"/>
</g>
<g id="Layer_6">
	<polygon fill="#ED1C24" stroke="#000000" stroke-width="3" stroke-miterlimit="10" points="41.572,404.286 41.572,229.857 
		73.286,129 146.143,191.857 237.571,129 283.286,179 344.714,137.571 407.571,164.714 466.857,229.857 466.857,404.286 	"/>
</g>
<g id="Layer_5">
	<polygon fill="#00AEEF" stroke="#000000" stroke-width="3" stroke-miterlimit="10" points="41.572,404.286 41.572,279 
		140.429,224.945 250.143,243.285 310.429,203.286 364.714,229.857 409,191.857 466.857,210.428 466.857,404.286 	"/>
</g>
<g id="Layer_4">
	<polygon fill="#00A651" stroke="#000000" stroke-width="3" stroke-miterlimit="10" points="41.572,404.286 40.429,313.285 
		111.857,313.285 179,264.714 243.286,273.285 306.143,291.857 390.429,257.143 446.143,267.571 465.857,284.714 466.857,404.286 	
		"/>
</g>
<g id="Layer_3">
	<polygon fill="#FFF200" stroke="#000000" stroke-width="3" stroke-miterlimit="10" points="40.429,406.286 465.857,406.286 
		465.857,301.857 387.571,279 301.857,320.429 210.429,290.429 120.429,342.643 59,330 40.429,354.714 	"/>
</g>
<g id="Layer_2">
	<line fill="none" stroke="#000000" stroke-width="10" stroke-miterlimit="10" x1="40.429" y1="74.714" x2="40.429" y2="406.286"/>
	
		<line fill="none" stroke="#000000" stroke-width="10" stroke-miterlimit="10" x1="466.857" y1="404.286" x2="35.429" y2="404.286"/>
	
		<line opacity="0.2" fill="none" stroke="#000000" stroke-width="4" stroke-miterlimit="10" x1="35.429" y1="110" x2="466.857" y2="110"/>
	
		<line opacity="0.2" fill="none" stroke="#000000" stroke-width="4" stroke-miterlimit="10" x1="34.429" y1="185.714" x2="465.857" y2="185.714"/>
	
		<line opacity="0.2" fill="none" stroke="#000000" stroke-width="4" stroke-miterlimit="10" x1="41.572" y1="257.143" x2="473" y2="257.143"/>
	
		<line opacity="0.2" fill="none" stroke="#000000" stroke-width="4" stroke-miterlimit="10" x1="41.572" y1="330" x2="473" y2="330"/>
</g>
<g id="Layer_7">
	
		<rect x="86.143" y="74.714" fill="#ED1C24" stroke="#000000" stroke-width="3" stroke-miterlimit="10" width="45.714" height="21.428"/>
	
		<rect x="155" y="74.714" fill="#00AEEF" stroke="#000000" stroke-width="3" stroke-miterlimit="10" width="45.714" height="21.428"/>
	
		<rect x="220" y="74.714" fill="#00A651" stroke="#000000" stroke-width="3" stroke-miterlimit="10" width="45.714" height="21.428"/>
	
		<rect x="288.857" y="74.714" fill="#FFF200" stroke="#000000" stroke-width="3" stroke-miterlimit="10" width="45.715" height="21.428"/>
</g>
</svg>
