<?xml version="1.0" encoding="utf-8"?>
<!-- Generator: Adobe Illustrator 16.0.0, SVG Export Plug-In . SVG Version: 6.00 Build 0)  -->
<!DOCTYPE svg PUBLIC "-//W3C//DTD SVG 1.1//EN" "http://www.w3.org/Graphics/SVG/1.1/DTD/svg11.dtd">
<svg version="1.1" xmlns="http://www.w3.org/2000/svg" xmlns:xlink="http://www.w3.org/1999/xlink" x="0px" y="0px"
	 width="508.57px" height="450px" viewBox="0 0 508.57 450" enable-background="new 0 0 508.57 450" xml:space="preserve">
<g id="Layer_1">
	<path fill="#E6E7E8" d="M508.57,438c0,6.627-5.543,12-12.383,12H12.383C5.544,450,0,444.627,0,438V12C0,5.373,5.544,0,12.383,0
		h483.805c6.84,0,12.383,5.373,12.383,12V438z"/>
	<g id="Layer_4">
		<rect x="43" y="62.353" fill="#FFFFFF" width="425.791" height="333.514"/>
	</g>
</g>
<g id="Layer_2">
	<line fill="none" stroke="#000000" stroke-width="10" stroke-miterlimit="10" x1="47" y1="63.353" x2="47" y2="396.866"/>
	<line fill="none" stroke="#000000" stroke-width="10" stroke-miterlimit="10" x1="42" y1="395.866" x2="467.791" y2="395.866"/>
	
		<line opacity="0.25" fill="none" stroke="#000000" stroke-width="2.5" stroke-miterlimit="10" x1="86.952" y1="62.353" x2="86.952" y2="395.866"/>
	
		<line opacity="0.25" fill="none" stroke="#000000" stroke-width="2.5" stroke-miterlimit="10" x1="182.129" y1="62.353" x2="182.129" y2="395.866"/>
	
		<line opacity="0.25" fill="none" stroke="#000000" stroke-width="2.5" stroke-miterlimit="10" x1="133.75" y1="60.587" x2="133.75" y2="394.102"/>
	
		<line opacity="0.25" fill="none" stroke="#000000" stroke-width="2.5" stroke-miterlimit="10" x1="234.199" y1="63.235" x2="234.199" y2="396.75"/>
	
		<line opacity="0.25" fill="none" stroke="#000000" stroke-width="2.5" stroke-miterlimit="10" x1="329.376" y1="63.235" x2="329.376" y2="396.75"/>
	
		<line opacity="0.25" fill="none" stroke="#000000" stroke-width="2.5" stroke-miterlimit="10" x1="280.996" y1="61.47" x2="280.996" y2="394.983"/>
	
		<line opacity="0.25" fill="none" stroke="#000000" stroke-width="2.5" stroke-miterlimit="10" x1="372.614" y1="65.882" x2="372.614" y2="399.396"/>
	
		<line opacity="0.25" fill="none" stroke="#000000" stroke-width="2.5" stroke-miterlimit="10" x1="467.791" y1="65.882" x2="467.791" y2="399.396"/>
	
		<line opacity="0.25" fill="none" stroke="#000000" stroke-width="2.5" stroke-miterlimit="10" x1="419.412" y1="64.117" x2="419.412" y2="397.63"/>
	
		<line opacity="0.2" fill="none" stroke="#000000" stroke-width="2.5" stroke-miterlimit="10" x1="42" y1="345.774" x2="467.791" y2="345.774"/>
	
		<line opacity="0.2" fill="none" stroke="#000000" stroke-width="2.5" stroke-miterlimit="10" x1="42.922" y1="295.681" x2="468.713" y2="295.681"/>
	
		<line opacity="0.2" fill="none" stroke="#000000" stroke-width="2.5" stroke-miterlimit="10" x1="42.923" y1="245.587" x2="468.714" y2="245.587"/>
	
		<line opacity="0.2" fill="none" stroke="#000000" stroke-width="2.5" stroke-miterlimit="10" x1="42" y1="191.54" x2="467.791" y2="191.54"/>
	
		<line opacity="0.2" fill="none" stroke="#000000" stroke-width="2.5" stroke-miterlimit="10" x1="42" y1="142.765" x2="467.791" y2="142.765"/>
	
		<line opacity="0.2" fill="none" stroke="#000000" stroke-width="2.5" stroke-miterlimit="10" x1="42.923" y1="90.035" x2="468.715" y2="90.035"/>
</g>
<g id="Layer_3">
	<circle opacity="0.8" fill="#00AEEF" cx="123.138" cy="355.594" r="36.186"/>
	<circle opacity="0.8" fill="#BE1E2D" cx="225.235" cy="331.273" r="60.639"/>
	<circle opacity="0.8" fill="#00A651" cx="340.581" cy="211.972" r="46.798"/>
	<circle opacity="0.8" fill="#FFF200" cx="280.996" cy="227.345" r="53.191"/>
	<circle opacity="0.8" fill="#ED1C24" cx="311.251" cy="172.096" r="29.331"/>
	<circle opacity="0.8" fill="#00AEEF" cx="145.943" cy="298.628" r="18.093"/>
	<circle opacity="0.8" fill="#662D91" cx="300.144" cy="329.724" r="34.043"/>
	<circle opacity="0.8" cx="438.13" cy="102.558" r="20.433"/>
	<circle opacity="0.8" cx="392.651" cy="128.264" r="25.706"/>
	<circle opacity="0.8" cx="438.131" cy="272.923" r="25.706"/>
</g>
</svg>
