<?xml version="1.0" encoding="utf-8"?>
<!-- Generator: Adobe Illustrator 16.0.0, SVG Export Plug-In . SVG Version: 6.00 Build 0)  -->
<!DOCTYPE svg PUBLIC "-//W3C//DTD SVG 1.1//EN" "http://www.w3.org/Graphics/SVG/1.1/DTD/svg11.dtd">
<svg version="1.1" xmlns="http://www.w3.org/2000/svg" xmlns:xlink="http://www.w3.org/1999/xlink" x="0px" y="0px"
	 width="508.57px" height="450px" viewBox="0 0 508.57 450" enable-background="new 0 0 508.57 450" xml:space="preserve">
<g id="Layer_1">
	<path fill="#E6E7E8" d="M508.57,438c0,6.627-5.543,12-12.383,12H12.383C5.544,450,0,444.627,0,438V12C0,5.373,5.544,0,12.383,0
		h483.805c6.84,0,12.383,5.373,12.383,12V438z"/>
</g>
<g id="Layer_9">
	<rect x="40.857" y="57.571" fill="#A7A9AC" width="431" height="327.143"/>
</g>
<g id="Layer_8">
	<line fill="none" stroke="#000000" stroke-miterlimit="10" x1="40.857" y1="340.429" x2="466.143" y2="340.429"/>
	<line fill="none" stroke="#000000" stroke-miterlimit="10" x1="40.857" y1="283.286" x2="466.143" y2="283.286"/>
	<line fill="none" stroke="#000000" stroke-miterlimit="10" x1="41.857" y1="225.429" x2="467.143" y2="225.429"/>
	<line fill="none" stroke="#000000" stroke-miterlimit="10" x1="37.696" y1="111.857" x2="462.981" y2="111.857"/>
	<line fill="none" stroke="#000000" stroke-miterlimit="10" x1="37.696" y1="166.017" x2="462.981" y2="166.017"/>
</g>
<g id="Layer_6">
	<path fill="none" stroke="#FFF200" stroke-width="2" stroke-miterlimit="10" d="M43.106,377.748c0,0,17.874-263.35,31.608-233.034
		s7.143,191.428,7.143,191.428S99,149,100.429,153.286s4.541,171.603,4.541,171.603l15.459-167.317l15.714,120l7.143-100
		l18.506,148.457L169,199c0,0,21.018,120.349,19.901,113.018s-7.043-169.733-7.043-169.733l18.571,169.733l7.143-87.073
		l18.572,35.071L231.857,189c0,0,1.429,67.745,31.429,71.016s24.285-115.302,44.285-52.444s10,84.285,18.571,80S359,199,359,199
		l17.143,95.714l14.286-88.571c0,0,17.144,87.143,32.857,77.143s12.855-37.143,21.428-30s24.286,71.749,32.857,58.731"/>
</g>
<g id="Layer_5">
	<path fill="none" stroke="#00A651" stroke-width="2" stroke-miterlimit="10" d="M40.857,384.714c0,0,15.286-59.999,55.286-34.285
		s45.714,21.474,81.428-6.406s35.715,18.571,91.429,20.346s5.623-42.875,44.286-51.082S329,339,360.429,349
		s72.856-32.856,105.714-27.143"/>
</g>
<g id="Layer_4">
	<path fill="none" stroke="#2E3192" stroke-width="2" stroke-miterlimit="10" d="M43.106,358.854c0,0,0.18-189.854,27.323-192.711
		s29.748,43.258,31.429,96.356s11.428-60.642,17.143-82.07s14.822,62.27,17.143,97.143s18.571,117.143,24.286,67.143
		s-5.714-119.769-5.714-119.769s31.429-7.374,31.429,52.626s21.428,94.285,48.571,68.571s0-89.999,32.857-74.285
		s1.43,85.702,35.715,88.565s-0.001-53.459,44.285-55.298s7.143,36.731,40,41.018s5.715-35.713,35.715-32.856
		s-0.001,35.913,34.285,47.242"/>
</g>
<g id="Layer_3">
	<path fill="none" stroke="#ED1C24" stroke-width="2" stroke-miterlimit="10" d="M40.857,384.714c0,0,16.714-204.286,23.857-150
		s0,95.715,0,95.715s17.143,10.001,21.429-37.143s14.286-2.856,20,40s30-55.715,30-55.715s0,38.572,8.571,65.715
		s8.572,20,45.714,8.571s70-35.715,101.429-12.857s15.713-1.428,62.856-5.714s41.43,17.143,65.715,17.143s51.429,4.285,51.429,4.285
		"/>
</g>
<g id="Layer_2">
	
		<line fill="none" stroke="#000000" stroke-width="10" stroke-miterlimit="10" x1="36.143" y1="384.714" x2="471.857" y2="384.714"/>
	<line fill="none" stroke="#000000" stroke-width="10" stroke-miterlimit="10" x1="40.857" y1="384.714" x2="40.857" y2="57.571"/>
</g>
<g id="Layer_7">
	
		<rect x="66.429" y="69" fill="#FFF200" stroke="#000000" stroke-width="4" stroke-miterlimit="10" width="37.143" height="25.714"/>
	
		<rect x="113.572" y="69" fill="#2E3192" stroke="#000000" stroke-width="4" stroke-miterlimit="10" width="37.143" height="25.715"/>
	
		<rect x="165.285" y="69" fill="#00A651" stroke="#000000" stroke-width="4" stroke-miterlimit="10" width="37.143" height="25.715"/>
	
		<rect x="212.429" y="69" fill="#ED1C24" stroke="#000000" stroke-width="4" stroke-miterlimit="10" width="37.143" height="25.715"/>
</g>
</svg>
