<?xml version="1.0" encoding="utf-8"?>
<!-- Generator: Adobe Illustrator 16.0.0, SVG Export Plug-In . SVG Version: 6.00 Build 0)  -->
<!DOCTYPE svg PUBLIC "-//W3C//DTD SVG 1.1//EN" "http://www.w3.org/Graphics/SVG/1.1/DTD/svg11.dtd">
<svg version="1.1" xmlns="http://www.w3.org/2000/svg" xmlns:xlink="http://www.w3.org/1999/xlink" x="0px" y="0px"
	 width="508.57px" height="450px" viewBox="0 0 508.57 450" enable-background="new 0 0 508.57 450" xml:space="preserve">
<g id="Layer_1">
	<path fill="#E6E7E8" d="M508.57,438c0,6.627-5.543,12-12.383,12H12.383C5.544,450,0,444.627,0,438V12C0,5.373,5.544,0,12.383,0
		h483.805c6.84,0,12.383,5.373,12.383,12V438z"/>
</g>
<g id="Layer_2">
	<rect x="373.572" y="236.571" fill="#00AEEF" width="65.714" height="166.429"/>
	<rect x="307.857" y="95.143" fill="#00A1E4" width="65.715" height="307.857"/>
	<rect x="242.143" y="183.714" fill="#0097DC" width="65.714" height="219.286"/>
	<rect x="176.429" y="269.071" fill="#0079C1" width="65.714" height="133.929"/>
	<rect x="110.714" y="225.715" fill="#005DAC" width="65.714" height="177.285"/>
	<rect x="45" y="192.286" fill="#2E3192" width="65.714" height="210.714"/>
	<line fill="none" stroke="#000000" stroke-width="10" stroke-miterlimit="10" x1="45" y1="46.429" x2="45" y2="405"/>
	<line fill="none" stroke="#000000" stroke-width="10" stroke-miterlimit="10" x1="40" y1="403" x2="474.286" y2="403"/>
</g>
<g id="Layer_3">
	<line opacity="0.2" fill="none" stroke="#000000" stroke-miterlimit="10" x1="111.714" y1="46.429" x2="111.714" y2="403"/>
	<line opacity="0.2" fill="none" stroke="#000000" stroke-miterlimit="10" x1="177.429" y1="45.66" x2="177.429" y2="402.23"/>
	<line opacity="0.2" fill="none" stroke="#000000" stroke-miterlimit="10" x1="243.143" y1="46.429" x2="243.143" y2="403"/>
	<line opacity="0.2" fill="none" stroke="#000000" stroke-miterlimit="10" x1="308.857" y1="47.429" x2="308.857" y2="404"/>
	<line opacity="0.2" fill="none" stroke="#000000" stroke-miterlimit="10" x1="374.572" y1="45.659" x2="374.572" y2="402.23"/>
	<line opacity="0.2" fill="none" stroke="#000000" stroke-miterlimit="10" x1="440.286" y1="47.43" x2="440.286" y2="404.001"/>
	<line opacity="0.2" fill="none" stroke="#000000" stroke-miterlimit="10" x1="46" y1="95.143" x2="440.286" y2="95.143"/>
	<line opacity="0.2" fill="none" stroke="#000000" stroke-miterlimit="10" x1="41" y1="223.945" x2="440.286" y2="223.945"/>
	<line opacity="0.2" fill="none" stroke="#000000" stroke-miterlimit="10" x1="46" y1="155.143" x2="440.286" y2="155.143"/>
</g>
</svg>
