<?xml version="1.0" encoding="utf-8"?>
<!-- Generator: Adobe Illustrator 16.0.0, SVG Export Plug-In . SVG Version: 6.00 Build 0)  -->
<!DOCTYPE svg PUBLIC "-//W3C//DTD SVG 1.1//EN" "http://www.w3.org/Graphics/SVG/1.1/DTD/svg11.dtd">
<svg version="1.1" id="Layer_1" xmlns="http://www.w3.org/2000/svg" xmlns:xlink="http://www.w3.org/1999/xlink" x="0px" y="0px"
	 width="508.57px" height="450px" viewBox="0 0 508.57 450" enable-background="new 0 0 508.57 450" xml:space="preserve">
<path fill="#E6E7E8" d="M508.57,438c0,6.627-5.543,12-12.383,12H12.383C5.544,450,0,444.627,0,438V12C0,5.373,5.544,0,12.383,0
	h483.805c6.84,0,12.383,5.373,12.383,12V438z"/>
<g>
	<g>
		<g>
			<rect x="397.927" y="52.742" fill="#0067B4" stroke="#000000" stroke-miterlimit="10" width="46.184" height="36.945"/>
			<g>
				<path fill="#0067B4" stroke="#000000" stroke-width="3" stroke-miterlimit="10" d="M184.345,237.475l-22.496,160.069
					c-88.402-12.427-149.996-94.163-137.57-182.565c11.23-79.916,79.365-139.145,160.066-139.145V237.475z"/>
			</g>
		</g>
		<g>
			<rect x="397.927" y="108.161" fill="#00AEEF" stroke="#000000" stroke-miterlimit="10" width="46.184" height="36.947"/>
			<g>
				<path fill="#0083B4" stroke="#000000" stroke-width="3" stroke-miterlimit="10" d="M184.345,237.475l161.025-14.088
					c7.779,88.931-58.006,167.334-146.938,175.113c-12.629,1.104-24.031,0.806-36.584-0.956L184.345,237.475z"/>
			</g>
		</g>
		<g>
			<rect x="397.927" y="163.582" fill="#0083B4" stroke="#000000" stroke-miterlimit="10" width="46.184" height="36.946"/>
			<g>
				<path fill="#00AEEF" stroke="#000000" stroke-width="3" stroke-miterlimit="10" d="M184.345,237.475l125.619-101.724
					c21.346,26.363,32.451,53.843,35.406,87.636L184.345,237.475z"/>
			</g>
		</g>
		<g>
			<rect x="397.927" y="219.001" fill="#2E3192" stroke="#000000" stroke-miterlimit="10" width="46.184" height="36.947"/>
			<g>
				<path fill="#2E3192" stroke="#000000" stroke-width="3" stroke-miterlimit="10" d="M184.345,237.475V75.834
					c50.973,0,93.539,20.303,125.619,59.917L184.345,237.475z"/>
			</g>
		</g>
	</g>
	<g>
		<g>
		</g>
		<g>
		</g>
		<g>
		</g>
		<g>
		</g>
	</g>
	<g>
		<text transform="matrix(1 0 0 1 449.8848 77.71)"><tspan x="0" y="0" fill="#2E3192" stroke="#000000" stroke-miterlimit="10" font-family="'MyriadPro-Regular'" font-size="17.3186">T</tspan><tspan x="7.828" y="0" fill="#2E3192" stroke="#000000" stroke-miterlimit="10" font-family="'MyriadPro-Regular'" font-size="17.3186">r</tspan><tspan x="13.318" y="0" fill="#2E3192" stroke="#000000" stroke-miterlimit="10" font-family="'MyriadPro-Regular'" font-size="17.3186">ee</tspan></text>
		<text transform="matrix(1 0 0 1 449.8848 133.1299)"><tspan x="0" y="0" fill="#2E3192" stroke="#000000" stroke-miterlimit="10" font-family="'MyriadPro-Regular'" font-size="17.3186">En</tspan><tspan x="18.132" y="0" fill="#2E3192" stroke="#000000" stroke-miterlimit="10" font-family="'MyriadPro-Regular'" font-size="17.3186">g</tspan><tspan x="27.709" y="0" fill="#2E3192" stroke="#000000" stroke-miterlimit="10" font-family="'MyriadPro-Regular'" font-size="17.3186">ine</tspan></text>
		<text transform="matrix(1 0 0 1 449.8848 188.5479)"><tspan x="0" y="0" fill="#2E3192" stroke="#000000" stroke-miterlimit="10" font-family="'MyriadPro-Regular'" font-size="17.3186">P</tspan><tspan x="8.78" y="0" fill="#2E3192" stroke="#000000" stroke-miterlimit="10" font-family="'MyriadPro-Regular'" font-size="17.3186">ear</tspan></text>
		<text transform="matrix(1 0 0 1 449.8848 243.9678)"><tspan x="0" y="0" fill="#2E3192" stroke="#000000" stroke-miterlimit="10" font-family="'MyriadPro-Regular'" font-size="17.3186">A</tspan><tspan x="10.547" y="0" fill="#2E3192" stroke="#000000" stroke-miterlimit="10" font-family="'MyriadPro-Regular'" font-size="17.3186">pple</tspan></text>
	</g>
</g>
<path fill="none" stroke="#000000" stroke-miterlimit="10" d="M-303.857-38.143c-1.635,0.471-2.587-0.005-2.857-1.428"/>
</svg>
