<?xml version="1.0" encoding="utf-8"?>
<!-- Generator: Adobe Illustrator 16.0.0, SVG Export Plug-In . SVG Version: 6.00 Build 0)  -->
<!DOCTYPE svg PUBLIC "-//W3C//DTD SVG 1.1//EN" "http://www.w3.org/Graphics/SVG/1.1/DTD/svg11.dtd">
<svg version="1.1" xmlns="http://www.w3.org/2000/svg" xmlns:xlink="http://www.w3.org/1999/xlink" x="0px" y="0px"
	 width="508.57px" height="450px" viewBox="0 0 508.57 450" enable-background="new 0 0 508.57 450" xml:space="preserve">
<g id="Layer_1">
	<path fill="#E6E7E8" d="M508.57,438c0,6.627-5.543,12-12.383,12H12.383C5.544,450,0,444.627,0,438V12C0,5.373,5.544,0,12.383,0
		h483.805c6.84,0,12.383,5.373,12.383,12V438z"/>
</g>
<g id="Layer_2">
	
		<rect x="42.286" y="52" fill="#F1F2F2" stroke="#000000" stroke-width="5" stroke-miterlimit="10" width="424.286" height="347.143"/>
	<path opacity="0.2" fill="none" stroke="#000000" stroke-width="5" stroke-miterlimit="10" d="M105.143,344.857
		c0-133.446,138.013-241.429,308.571-241.429"/>
</g>
<g id="Layer_4">
	<line opacity="0.2" fill="none" stroke="#000000" stroke-miterlimit="10" x1="42.286" y1="103.429" x2="466.571" y2="103.429"/>
	<line opacity="0.2" fill="none" stroke="#000000" stroke-miterlimit="10" x1="44.075" y1="155.594" x2="468.361" y2="155.594"/>
	<line opacity="0.2" fill="none" stroke="#000000" stroke-miterlimit="10" x1="42.286" y1="211.429" x2="466.571" y2="211.429"/>
	<line opacity="0.2" fill="none" stroke="#000000" stroke-miterlimit="10" x1="42.286" y1="263.701" x2="466.571" y2="263.701"/>
	<line opacity="0.2" fill="none" stroke="#000000" stroke-miterlimit="10" x1="44.075" y1="318.819" x2="468.361" y2="318.819"/>
	<line opacity="0.2" fill="none" stroke="#000000" stroke-miterlimit="10" x1="104.494" y1="51.558" x2="104.494" y2="399.143"/>
	<line opacity="0.2" fill="none" stroke="#000000" stroke-miterlimit="10" x1="173.146" y1="51.558" x2="173.146" y2="399.143"/>
	<line opacity="0.2" fill="none" stroke="#000000" stroke-miterlimit="10" x1="254.494" y1="51.558" x2="254.494" y2="399.143"/>
	<line opacity="0.2" fill="none" stroke="#000000" stroke-miterlimit="10" x1="336.442" y1="52.974" x2="336.441" y2="400.559"/>
	<line opacity="0.2" fill="none" stroke="#000000" stroke-miterlimit="10" x1="405.88" y1="52.975" x2="405.879" y2="400.559"/>
</g>
<g id="Layer_3">
	<circle opacity="0.5" fill="#ED1C24" cx="69" cy="363.524" r="5.475"/>
	<circle opacity="0.5" fill="#ED1C24" cx="89.954" cy="369" r="5.475"/>
	<circle opacity="0.5" fill="#ED1C24" cx="76.474" cy="354.049" r="5.475"/>
	<circle opacity="0.5" fill="#ED1C24" cx="94.665" cy="360.05" r="5.475"/>
	<circle opacity="0.5" fill="#ED1C24" cx="115.62" cy="365.525" r="5.475"/>
	<circle opacity="0.5" fill="#ED1C24" cx="102.14" cy="350.574" r="5.475"/>
	<circle opacity="0.5" fill="#ED1C24" cx="76.829" cy="339.624" r="5.475"/>
	<circle opacity="0.5" fill="#ED1C24" cx="97.784" cy="345.1" r="5.475"/>
	<circle opacity="0.5" fill="#ED1C24" cx="84.304" cy="330.148" r="5.475"/>
	<circle opacity="0.5" fill="#ED1C24" cx="102.495" cy="336.149" r="5.475"/>
	<circle opacity="0.5" fill="#ED1C24" cx="123.45" cy="341.625" r="5.476"/>
	<circle opacity="0.5" fill="#ED1C24" cx="109.969" cy="326.674" r="5.476"/>
	<circle opacity="0.5" fill="#ED1C24" cx="108.733" cy="366.262" r="5.475"/>
	<circle opacity="0.5" fill="#ED1C24" cx="129.688" cy="371.737" r="5.475"/>
	<circle opacity="0.5" fill="#ED1C24" cx="116.208" cy="356.786" r="5.475"/>
	<circle opacity="0.5" fill="#ED1C24" cx="134.399" cy="362.787" r="5.475"/>
	<circle opacity="0.5" fill="#ED1C24" cx="155.354" cy="368.263" r="5.476"/>
	<circle opacity="0.5" fill="#ED1C24" cx="141.874" cy="353.312" r="5.475"/>
	<circle opacity="0.5" fill="#ED1C24" cx="116.563" cy="342.361" r="5.475"/>
	<circle opacity="0.5" fill="#ED1C24" cx="137.518" cy="347.837" r="5.475"/>
	<circle opacity="0.5" fill="#ED1C24" cx="124.038" cy="332.886" r="5.475"/>
	<circle opacity="0.5" fill="#ED1C24" cx="142.228" cy="338.887" r="5.474"/>
	<circle opacity="0.5" fill="#ED1C24" cx="163.184" cy="344.362" r="5.476"/>
	<circle opacity="0.5" fill="#ED1C24" cx="149.704" cy="329.411" r="5.476"/>
	<circle opacity="0.5" fill="#ED1C24" cx="111.585" cy="346.762" r="5.475"/>
	<circle opacity="0.5" fill="#ED1C24" cx="132.428" cy="340.877" r="5.475"/>
	<circle opacity="0.5" fill="#ED1C24" cx="113.234" cy="334.807" r="5.475"/>
	<circle opacity="0.5" fill="#ED1C24" cx="131.96" cy="330.774" r="5.475"/>
	<circle opacity="0.5" fill="#ED1C24" cx="152.804" cy="324.889" r="5.475"/>
	<circle opacity="0.5" fill="#ED1C24" cx="133.61" cy="318.818" r="5.475"/>
	<circle opacity="0.5" fill="#ED1C24" cx="106.239" cy="322.187" r="5.475"/>
	<circle opacity="0.5" fill="#ED1C24" cx="127.083" cy="316.302" r="5.475"/>
	<circle opacity="0.5" fill="#ED1C24" cx="107.889" cy="310.231" r="5.475"/>
	<circle opacity="0.5" fill="#ED1C24" cx="126.615" cy="306.199" r="5.475"/>
	<circle opacity="0.5" fill="#ED1C24" cx="147.459" cy="300.313" r="5.476"/>
	<circle opacity="0.5" fill="#ED1C24" cx="128.264" cy="294.243" r="5.475"/>
	<circle opacity="0.5" fill="#ED1C24" cx="147.238" cy="329.01" r="5.475"/>
	<circle opacity="0.5" fill="#ED1C24" cx="168.081" cy="323.125" r="5.475"/>
	<circle opacity="0.5" fill="#ED1C24" cx="148.887" cy="317.055" r="5.475"/>
	<circle opacity="0.5" fill="#ED1C24" cx="167.613" cy="313.022" r="5.474"/>
	<circle opacity="0.5" fill="#ED1C24" cx="188.458" cy="307.137" r="5.475"/>
	<circle opacity="0.5" fill="#ED1C24" cx="169.263" cy="301.066" r="5.476"/>
	<circle opacity="0.5" fill="#ED1C24" cx="141.892" cy="304.435" r="5.475"/>
	<circle opacity="0.5" fill="#ED1C24" cx="162.736" cy="298.549" r="5.476"/>
	<circle opacity="0.5" fill="#ED1C24" cx="143.542" cy="292.479" r="5.475"/>
	<circle opacity="0.5" fill="#ED1C24" cx="162.267" cy="288.446" r="5.475"/>
	<circle opacity="0.5" fill="#ED1C24" cx="183.112" cy="282.561" r="5.476"/>
	<circle opacity="0.5" fill="#ED1C24" cx="163.918" cy="276.49" r="5.476"/>
	<circle opacity="0.5" fill="#00AEEF" cx="398.405" cy="168.148" r="5.474"/>
	<circle opacity="0.5" fill="#00AEEF" cx="410.404" cy="150.118" r="5.475"/>
	<circle opacity="0.5" fill="#00AEEF" cx="391.878" cy="157.996" r="5.476"/>
	<circle opacity="0.5" fill="#00AEEF" cx="403.475" cy="142.75" r="5.475"/>
	<circle opacity="0.5" fill="#00AEEF" cx="415.475" cy="124.719" r="5.475"/>
	<circle opacity="0.5" fill="#00AEEF" cx="396.95" cy="132.598" r="5.476"/>
	<circle opacity="0.5" fill="#00AEEF" cx="378.355" cy="152.964" r="5.474"/>
	<circle opacity="0.5" fill="#00AEEF" cx="390.355" cy="134.933" r="5.475"/>
	<circle opacity="0.5" fill="#00AEEF" cx="371.83" cy="142.812" r="5.475"/>
	<circle opacity="0.5" fill="#00AEEF" cx="383.426" cy="127.565" r="5.475"/>
	<circle opacity="0.5" fill="#00AEEF" cx="395.426" cy="109.535" r="5.476"/>
	<circle opacity="0.5" fill="#00AEEF" cx="376.9" cy="117.413" r="5.475"/>
	<circle opacity="0.5" fill="#00AEEF" cx="413.929" cy="131.471" r="5.474"/>
	<circle opacity="0.5" fill="#00AEEF" cx="425.928" cy="113.44" r="5.475"/>
	<circle opacity="0.5" fill="#00AEEF" cx="407.403" cy="121.318" r="5.475"/>
	<circle opacity="0.5" fill="#00AEEF" cx="418.999" cy="106.073" r="5.475"/>
	<circle opacity="0.5" fill="#00AEEF" cx="431" cy="88.041" r="5.476"/>
	<circle opacity="0.5" fill="#00AEEF" cx="412.474" cy="95.919" r="5.476"/>
	<circle opacity="0.5" fill="#00AEEF" cx="393.88" cy="116.286" r="5.474"/>
	<circle opacity="0.5" fill="#00AEEF" cx="405.879" cy="98.255" r="5.476"/>
	<circle opacity="0.5" fill="#00AEEF" cx="387.354" cy="106.134" r="5.475"/>
	<circle opacity="0.5" fill="#00AEEF" cx="398.95" cy="90.888" r="5.474"/>
	<circle opacity="0.5" fill="#00AEEF" cx="410.95" cy="72.856" r="5.476"/>
	<circle opacity="0.5" fill="#00AEEF" cx="392.425" cy="80.734" r="5.475"/>
	<circle opacity="0.5" fill="#00AEEF" cx="313.133" cy="120.452" r="5.475"/>
	<circle opacity="0.5" fill="#00AEEF" cx="334.087" cy="125.928" r="5.475"/>
	<circle opacity="0.5" fill="#00AEEF" cx="320.607" cy="110.977" r="5.475"/>
	<circle opacity="0.5" fill="#00AEEF" cx="338.798" cy="116.978" r="5.475"/>
	<circle opacity="0.5" fill="#00AEEF" cx="359.753" cy="122.453" r="5.476"/>
	<circle opacity="0.5" fill="#00AEEF" cx="346.272" cy="107.502" r="5.476"/>
	<circle opacity="0.5" fill="#00AEEF" cx="320.962" cy="96.552" r="5.475"/>
	<circle opacity="0.5" fill="#00AEEF" cx="341.917" cy="102.027" r="5.476"/>
	<circle opacity="0.5" fill="#00AEEF" cx="328.437" cy="87.076" r="5.476"/>
	<circle opacity="0.5" fill="#00AEEF" cx="346.627" cy="93.077" r="5.475"/>
	<circle opacity="0.5" fill="#00AEEF" cx="367.583" cy="98.553" r="5.476"/>
	<circle opacity="0.5" fill="#00AEEF" cx="354.103" cy="83.602" r="5.476"/>
	<circle opacity="0.5" fill="#00AEEF" cx="352.866" cy="123.189" r="5.475"/>
	<circle opacity="0.5" fill="#00AEEF" cx="373.821" cy="128.665" r="5.475"/>
	<circle opacity="0.5" fill="#00AEEF" cx="360.341" cy="113.714" r="5.476"/>
	<circle opacity="0.5" fill="#00AEEF" cx="378.531" cy="119.715" r="5.475"/>
	<circle opacity="0.5" fill="#00AEEF" cx="399.487" cy="125.19" r="5.476"/>
	<circle opacity="0.5" fill="#00AEEF" cx="386.007" cy="110.239" r="5.476"/>
	<circle opacity="0.5" fill="#00AEEF" cx="360.695" cy="99.289" r="5.475"/>
	<circle opacity="0.5" fill="#00AEEF" cx="381.651" cy="104.765" r="5.476"/>
	<circle opacity="0.5" fill="#00AEEF" cx="368.17" cy="89.813" r="5.475"/>
	<circle opacity="0.5" fill="#00AEEF" cx="386.361" cy="95.814" r="5.475"/>
	<circle opacity="0.5" fill="#00AEEF" cx="407.317" cy="101.29" r="5.476"/>
	<circle opacity="0.5" fill="#00AEEF" cx="393.837" cy="86.339" r="5.476"/>
	<circle opacity="0.5" fill="#ED1C24" cx="136.647" cy="282.048" r="5.476"/>
	<circle opacity="0.5" fill="#ED1C24" cx="156.801" cy="294.756" r="5.474"/>
	<circle opacity="0.5" fill="#ED1C24" cx="177.646" cy="288.871" r="5.475"/>
	<circle opacity="0.5" fill="#ED1C24" cx="158.452" cy="282.8" r="5.476"/>
	<circle opacity="0.5" fill="#ED1C24" cx="131.08" cy="286.169" r="5.475"/>
	<circle opacity="0.5" fill="#ED1C24" cx="151.924" cy="280.284" r="5.476"/>
	<circle opacity="0.5" fill="#ED1C24" cx="132.73" cy="274.213" r="5.475"/>
	<circle opacity="0.5" fill="#ED1C24" cx="151.456" cy="270.181" r="5.475"/>
	<circle opacity="0.5" fill="#ED1C24" cx="172.3" cy="264.295" r="5.476"/>
	<circle opacity="0.5" fill="#ED1C24" cx="153.107" cy="258.225" r="5.476"/>
	<circle opacity="0.5" fill="#ED1C24" cx="199.93" cy="255.326" r="5.476"/>
	<circle opacity="0.5" fill="#ED1C24" cx="180.736" cy="249.255" r="5.476"/>
	<circle opacity="0.5" fill="#ED1C24" cx="153.466" cy="254.813" r="5.476"/>
	<circle opacity="0.5" fill="#ED1C24" cx="175.271" cy="255.565" r="5.476"/>
	<circle opacity="0.5" fill="#ED1C24" cx="168.743" cy="253.048" r="5.476"/>
	<circle opacity="0.5" fill="#ED1C24" cx="149.549" cy="246.978" r="5.475"/>
	<circle opacity="0.5" fill="#ED1C24" cx="168.274" cy="242.945" r="5.475"/>
	<circle opacity="0.5" fill="#ED1C24" cx="189.119" cy="237.06" r="5.476"/>
	<circle opacity="0.5" fill="#ED1C24" cx="169.925" cy="230.989" r="5.476"/>
	<circle opacity="0.5" fill="#00AEEF" cx="254.286" cy="124.719" r="5.476"/>
	<circle opacity="0.5" fill="#ED1C24" cx="302.182" cy="162.672" r="5.476"/>
	<circle opacity="0.5" fill="#ED1C24" cx="205.407" cy="318.819" r="5.476"/>
	<circle opacity="0.5" fill="#00AEEF" cx="366.353" cy="241.502" r="5.476"/>
	<circle opacity="0.5" fill="#00AEEF" cx="360.341" cy="196.143" r="5.476"/>
	<circle opacity="0.5" fill="#00AEEF" cx="405.879" cy="196.143" r="5.476"/>
	<circle opacity="0.5" fill="#ED1C24" cx="210.883" cy="360.787" r="5.476"/>
	<circle opacity="0.5" fill="#ED1C24" cx="276.227" cy="360.787" r="5.476"/>
	<circle opacity="0.5" fill="#ED1C24" cx="96.665" cy="220.026" r="5.476"/>
	<circle opacity="0.5" fill="#ED1C24" cx="113.365" cy="162.672" r="5.476"/>
	<circle opacity="0.5" fill="#ED1C24" cx="171.146" cy="358.049" r="5.475"/>
	<circle opacity="0.5" fill="#ED1C24" cx="192.102" cy="363.524" r="5.475"/>
	<circle opacity="0.5" fill="#ED1C24" cx="178.621" cy="348.573" r="5.475"/>
	<circle opacity="0.5" fill="#ED1C24" cx="174.266" cy="343.099" r="5.475"/>
	<circle opacity="0.5" fill="#ED1C24" cx="199.931" cy="339.624" r="5.476"/>
	<circle opacity="0.5" fill="#ED1C24" cx="185.215" cy="364.261" r="5.475"/>
	<circle opacity="0.5" fill="#ED1C24" cx="206.17" cy="369.736" r="5.475"/>
	<circle opacity="0.5" fill="#ED1C24" cx="192.689" cy="354.785" r="5.475"/>
	<circle opacity="0.5" fill="#ED1C24" cx="210.88" cy="360.786" r="5.474"/>
	<circle opacity="0.5" fill="#ED1C24" cx="231.836" cy="366.262" r="5.476"/>
	<circle opacity="0.5" fill="#ED1C24" cx="218.355" cy="351.311" r="5.476"/>
	<circle opacity="0.5" fill="#ED1C24" cx="193.044" cy="340.36" r="5.475"/>
	<circle opacity="0.5" fill="#ED1C24" cx="214" cy="345.836" r="5.476"/>
	<circle opacity="0.5" fill="#ED1C24" cx="218.71" cy="336.886" r="5.475"/>
	<circle opacity="0.5" fill="#ED1C24" cx="239.666" cy="342.361" r="5.476"/>
	<circle opacity="0.5" fill="#ED1C24" cx="188.066" cy="344.761" r="5.475"/>
	<circle opacity="0.5" fill="#ED1C24" cx="208.91" cy="338.876" r="5.475"/>
	<circle opacity="0.5" fill="#00AEEF" cx="296.707" cy="89.077" r="5.476"/>
	<circle opacity="0.5" fill="#ED1C24" cx="144.183" cy="243.068" r="5.476"/>
	<circle opacity="0.5" fill="#ED1C24" cx="148.326" cy="233.842" r="5.475"/>
	<circle opacity="0.5" fill="#ED1C24" cx="169.582" cy="238" r="5.476"/>
	<path opacity="0.5" fill="#ED1C24" d="M160.661,223.578c0.188,3.016-2.104,5.617-5.125,5.807c-3.017,0.188-5.617-2.107-5.805-5.125
		c-0.188-3.016,2.105-5.616,5.123-5.805C157.874,218.267,160.473,220.562,160.661,223.578z"/>
	<circle opacity="0.5" fill="#ED1C24" cx="140.6" cy="237.005" r="5.474"/>
	<circle opacity="0.5" fill="#ED1C24" cx="161.857" cy="241.164" r="5.475"/>
	<circle opacity="0.5" fill="#ED1C24" cx="147.47" cy="227.082" r="5.476"/>
	<circle opacity="0.5" fill="#ED1C24" cx="142.782" cy="221.89" r="5.476"/>
	<circle opacity="0.5" fill="#ED1C24" cx="146.924" cy="212.663" r="5.475"/>
	<circle opacity="0.5" fill="#ED1C24" cx="168.181" cy="216.822" r="5.476"/>
	<circle opacity="0.5" fill="#ED1C24" cx="153.795" cy="202.74" r="5.475"/>
	<circle opacity="0.5" fill="#ED1C24" cx="196.885" cy="221.291" r="5.476"/>
	<circle opacity="0.5" fill="#ED1C24" cx="182.498" cy="207.209" r="5.476"/>
	<circle opacity="0.5" fill="#ED1C24" cx="155.656" cy="199.857" r="5.476"/>
	<circle opacity="0.5" fill="#ED1C24" cx="174.772" cy="210.372" r="5.476"/>
	<circle opacity="0.5" fill="#ED1C24" cx="170.084" cy="205.18" r="5.476"/>
	<circle opacity="0.5" fill="#ED1C24" cx="155.697" cy="191.098" r="5.475"/>
	<circle opacity="0.5" fill="#ED1C24" cx="174.227" cy="195.953" r="5.475"/>
	<circle opacity="0.5" fill="#ED1C24" cx="195.483" cy="200.112" r="5.476"/>
	<circle opacity="0.5" fill="#ED1C24" cx="181.097" cy="186.03" r="5.476"/>
	<circle opacity="0.5" fill="#00AEEF" cx="229.59" cy="255.018" r="5.476"/>
	<circle opacity="0.5" fill="#00AEEF" cx="218.779" cy="236.752" r="5.476"/>
	<circle opacity="0.5" fill="#00AEEF" cx="226.545" cy="220.983" r="5.476"/>
	<circle opacity="0.5" fill="#00AEEF" cx="256.217" cy="272.996" r="5.475"/>
	<circle opacity="0.5" fill="#00AEEF" cx="237.1" cy="263.775" r="5.476"/>
	<circle opacity="0.5" fill="#00AEEF" cx="234.833" cy="246.344" r="5.476"/>
	<circle opacity="0.5" fill="#ED1C24" cx="417.951" cy="362.262" r="5.475"/>
	<circle opacity="0.5" fill="#00AEEF" cx="378.532" cy="207.209" r="5.476"/>
	<circle opacity="0.5" fill="#00AEEF" cx="431" cy="168.148" r="5.476"/>
	<circle opacity="0.5" fill="#00AEEF" cx="376.176" cy="180.555" r="5.476"/>
	<circle opacity="0.5" fill="#00AEEF" cx="424.476" cy="190.667" r="5.476"/>
	<circle opacity="0.5" fill="#00AEEF" cx="291.231" cy="294.837" r="5.476"/>
	<circle opacity="0.5" fill="#00AEEF" cx="281.704" cy="255.566" r="5.476"/>
	<circle opacity="0.5" fill="#00AEEF" cx="336.442" cy="155.594" r="5.476"/>
</g>
</svg>
