<?xml version="1.0" encoding="utf-8"?>
<!-- Generator: Adobe Illustrator 16.0.0, SVG Export Plug-In . SVG Version: 6.00 Build 0)  -->
<!DOCTYPE svg PUBLIC "-//W3C//DTD SVG 1.1//EN" "http://www.w3.org/Graphics/SVG/1.1/DTD/svg11.dtd">
<svg version="1.1" id="Layer_1" xmlns="http://www.w3.org/2000/svg" xmlns:xlink="http://www.w3.org/1999/xlink" x="0px" y="0px"
	 width="511.428px" height="468.571px" viewBox="0 0 511.428 468.571" enable-background="new 0 0 511.428 468.571"
	 xml:space="preserve">
<rect x="47.428" y="28.088" fill="#D51920" width="47.143" height="52.857"/>
<rect x="94.571" y="28.087" fill="#A50D12" width="47.144" height="52.857"/>
<rect x="141.714" y="28.087" fill="#ED1C24" width="47.143" height="52.857"/>
<rect x="188.857" y="28.087" fill="#A50D12" width="47.143" height="52.858"/>
<rect x="236" y="28.088" fill="#DAE120" width="47.144" height="52.857"/>
<rect x="283.144" y="28.087" fill="#750202" width="47.143" height="52.858"/>
<rect x="330.287" y="28.087" fill="#750202" width="47.143" height="52.857"/>
<rect x="377.429" y="28.086" fill="#DAE120" width="47.144" height="52.858"/>
<rect x="424.573" y="28.086" fill="#ED1C24" width="47.144" height="52.858"/>
<rect x="47.428" y="80.945" fill="#ED1C24" width="47.143" height="52.857"/>
<rect x="94.571" y="80.944" fill="#DAE120" width="47.144" height="52.858"/>
<rect x="141.714" y="80.944" fill="#750202" width="47.143" height="52.858"/>
<rect x="188.857" y="80.944" fill="#750202" width="47.143" height="52.858"/>
<rect x="236" y="80.945" fill="#750202" width="47.144" height="52.857"/>
<rect x="283.144" y="80.944" fill="#750202" width="47.143" height="52.858"/>
<rect x="330.287" y="80.944" fill="#ED1C24" width="47.143" height="52.857"/>
<rect x="377.429" y="80.943" fill="#A50D12" width="47.143" height="52.858"/>
<rect x="424.572" y="80.943" fill="#ED1C24" width="47.145" height="52.857"/>
<rect x="47.427" y="133.804" fill="#DAE120" width="47.143" height="52.857"/>
<rect x="94.57" y="133.804" fill="#A50D12" width="47.144" height="52.858"/>
<rect x="141.713" y="133.804" fill="#A50D12" width="47.143" height="52.858"/>
<rect x="188.856" y="133.803" fill="#750202" width="47.143" height="52.858"/>
<rect x="236" y="133.804" fill="#740000" width="47.144" height="52.857"/>
<rect x="283.143" y="133.804" fill="#740000" width="47.143" height="52.858"/>
<rect x="330.286" y="133.803" fill="#DAE120" width="47.143" height="52.857"/>
<rect x="377.428" y="133.803" fill="#A50D12" width="47.144" height="52.858"/>
<rect x="424.572" y="133.802" fill="#A50D12" width="47.144" height="52.857"/>
<rect x="47.428" y="186.664" fill="#DAE120" width="47.143" height="52.858"/>
<rect x="94.571" y="186.663" fill="#ED1C24" width="47.144" height="52.858"/>
<rect x="141.714" y="186.663" fill="#750202" width="47.143" height="52.858"/>
<rect x="188.857" y="186.663" fill="#750202" width="47.143" height="52.859"/>
<rect x="236" y="186.664" fill="#740000" width="47.144" height="52.858"/>
<rect x="283.144" y="186.663" fill="#740000" width="47.143" height="52.858"/>
<rect x="330.287" y="186.663" fill="#750202" width="47.143" height="52.857"/>
<rect x="377.429" y="186.662" fill="#ED1C24" width="47.143" height="52.857"/>
<rect x="424.572" y="186.662" fill="#DAE120" width="47.145" height="52.858"/>
<rect x="47.428" y="239.523" fill="#ED1C24" width="47.143" height="52.856"/>
<rect x="94.571" y="239.522" fill="#A50D12" width="47.144" height="52.857"/>
<rect x="141.714" y="239.522" fill="#740000" width="47.143" height="52.857"/>
<rect x="188.857" y="239.521" fill="#740000" width="47.143" height="52.858"/>
<rect x="236" y="239.523" fill="#740000" width="47.144" height="52.857"/>
<rect x="283.144" y="239.522" fill="#740000" width="47.143" height="52.858"/>
<rect x="330.287" y="239.521" fill="#740000" width="47.143" height="52.857"/>
<rect x="377.429" y="239.521" fill="#750202" width="47.143" height="52.857"/>
<rect x="424.572" y="239.521" fill="#ED1C24" width="47.145" height="52.857"/>
<rect x="47.427" y="292.38" fill="#DAE120" width="47.143" height="52.857"/>
<rect x="94.57" y="292.379" fill="#DAE120" width="47.144" height="52.858"/>
<rect x="141.713" y="292.379" fill="#A50D12" width="47.143" height="52.858"/>
<rect x="188.856" y="292.379" fill="#750202" width="47.143" height="52.858"/>
<rect x="236" y="292.38" fill="#A50D12" width="47.145" height="52.857"/>
<rect x="283.144" y="292.379" fill="#A50D12" width="47.143" height="52.858"/>
<rect x="330.287" y="292.379" fill="#DAE120" width="47.143" height="52.857"/>
<rect x="377.429" y="292.379" fill="#ED1C24" width="47.143" height="52.857"/>
<rect x="424.572" y="292.378" fill="#A50D12" width="47.145" height="52.857"/>
<rect x="47.427" y="345.239" fill="#DAE120" width="47.143" height="52.858"/>
<rect x="94.57" y="345.238" fill="#ED1C24" width="47.144" height="52.859"/>
<rect x="141.713" y="345.238" fill="#750202" width="47.143" height="52.859"/>
<rect x="188.856" y="345.238" fill="#750202" width="47.143" height="52.859"/>
<rect x="235.999" y="345.239" fill="#DAE120" width="47.143" height="52.858"/>
<rect x="283.142" y="345.238" fill="#ED1C24" width="47.143" height="52.859"/>
<rect x="330.285" y="345.238" fill="#DAE120" width="47.143" height="52.857"/>
<rect x="377.427" y="345.238" fill="#ED1C24" width="47.145" height="52.857"/>
<rect x="424.572" y="345.237" fill="#DAE120" width="47.143" height="52.858"/>
<rect x="47.427" y="398.1" fill="#ED1C24" width="47.143" height="52.857"/>
<rect x="94.57" y="398.098" fill="#DAE120" width="47.144" height="52.859"/>
<rect x="141.713" y="398.098" fill="#DAE120" width="47.143" height="52.859"/>
<rect x="188.856" y="398.098" fill="#ED1C24" width="47.143" height="52.859"/>
<rect x="236" y="398.1" fill="#A50D12" width="47.145" height="52.857"/>
<rect x="283.144" y="398.098" fill="#ED1C24" width="47.143" height="52.859"/>
<rect x="330.287" y="398.098" fill="#DAE120" width="47.143" height="52.857"/>
<rect x="377.429" y="398.098" fill="#A50D12" width="47.143" height="52.857"/>
<rect x="424.572" y="398.098" fill="#ED1C24" width="47.145" height="52.857"/>
</svg>
