<?xml version="1.0" encoding="utf-8"?>
<!-- Generator: Adobe Illustrator 16.0.0, SVG Export Plug-In . SVG Version: 6.00 Build 0)  -->
<!DOCTYPE svg PUBLIC "-//W3C//DTD SVG 1.1//EN" "http://www.w3.org/Graphics/SVG/1.1/DTD/svg11.dtd">
<svg version="1.1" xmlns="http://www.w3.org/2000/svg" xmlns:xlink="http://www.w3.org/1999/xlink" x="0px" y="0px" width="350px"
	 height="341.429px" viewBox="0 0 350 341.429" enable-background="new 0 0 350 341.429" xml:space="preserve">
<g id="Layer_1">
	<g>
		<g>
			<g>
				<g>
					<path fill="#9F9F9F" stroke="#000000" stroke-width="0.5" stroke-miterlimit="10" d="M175.641,170.713L79.463,47.611
						c28.623-22.362,59.855-33.117,96.178-33.117V170.713z"/>
				</g>
			</g>
			<g>
				<g>
					<path fill="#404040" stroke="#000000" stroke-width="0.5" stroke-miterlimit="10" d="M175.641,170.713L61.39,277.254
						C2.549,214.154,6,115.303,69.1,56.462c3.281-3.06,6.828-6.089,10.363-8.851L175.641,170.713z"/>
				</g>
			</g>
			<g>
				<g>
					<path fill="#808080" stroke="#000000" stroke-width="0.5" stroke-miterlimit="10" d="M175.641,170.713l27.127,153.846
						c-53.614,9.455-104.25-7.488-141.378-47.305L175.641,170.713z"/>
				</g>
			</g>
			<g>
				<g>
					<path fill="#DFDFDF" stroke="#000000" stroke-width="0.5" stroke-miterlimit="10" d="M175.641,170.713l155.839,10.898
						c-5.067,72.469-57.17,130.334-128.712,142.947L175.641,170.713z"/>
				</g>
			</g>
			<g>
				<g>
					<path stroke="#000000" stroke-width="0.5" stroke-miterlimit="10" d="M175.641,170.713V14.494
						c86.277,0,156.219,69.942,156.219,156.219c0,4.486-0.067,6.422-0.38,10.898L175.641,170.713z"/>
				</g>
			</g>
		</g>
		<g>
			<g>
			</g>
			<g>
			</g>
			<g>
			</g>
			<g>
			</g>
			<g>
			</g>
		</g>
	</g>
</g>
<g id="Layer_2">
</g>
</svg>
