<?xml version="1.0" encoding="utf-8"?>
<!-- Generator: Adobe Illustrator 16.0.0, SVG Export Plug-In . SVG Version: 6.00 Build 0)  -->
<!DOCTYPE svg PUBLIC "-//W3C//DTD SVG 1.1//EN" "http://www.w3.org/Graphics/SVG/1.1/DTD/svg11.dtd">
<svg version="1.1" xmlns="http://www.w3.org/2000/svg" xmlns:xlink="http://www.w3.org/1999/xlink" x="0px" y="0px"
	 width="508.571px" height="450px" viewBox="0 0 508.571 450" enable-background="new 0 0 508.571 450" xml:space="preserve">
<g id="Layer_2">
	<path fill="#E6E7E8" d="M508.571,438c0,6.627-5.543,12-12.383,12H12.383C5.544,450,0,444.627,0,438V12C0,5.373,5.544,0,12.383,0
		h483.805c6.84,0,12.383,5.373,12.383,12V438z"/>
</g>
<g id="Layer_1">
	<rect x="82.286" y="244.594" fill="#00AEEF" width="103.116" height="173.978"/>
	<rect x="205.325" y="181.423" fill="#00AEEF" width="103.117" height="237.148"/>
	<rect x="340.599" y="140" fill="#00AEEF" width="103.115" height="278.571"/>
	<g>
		<path d="M82.286,214.286l7.253-8.285c2.414-2.765,4.875-5.485,7.314-8.226c4.872-5.487,9.795-10.924,14.731-16.349l7.394-8.147
			l7.451-8.091l14.92-16.165l15.045-16.043c5.018-5.344,10.015-10.708,15.077-16.01l15.168-15.922l15.232-15.858l1.617-1.683
			l2.396,0.263l16.922,1.854l16.913,1.928c11.279,1.261,22.543,2.646,33.814,3.964c11.263,1.393,22.532,2.735,33.788,4.19
			l16.886,2.165l16.88,2.222l-2.824,0.678l26.146-16.589c8.704-5.547,17.511-10.941,26.261-16.419
			c4.372-2.743,8.78-5.433,13.187-8.124l13.218-8.078l13.283-7.979l6.669-3.949l6.688-3.919l-6.201,4.652l-6.221,4.623
			l-12.495,9.164l-12.562,9.065c-4.186,3.023-8.371,6.047-12.592,9.019c-8.436,5.951-16.815,11.985-25.297,17.867L342.936,107.8
			l-1.207,0.841l-1.617-0.163l-16.938-1.707l-16.933-1.763c-11.29-1.164-22.566-2.441-33.849-3.667
			c-11.274-1.301-22.556-2.534-33.823-3.893l-16.905-2.001l-16.896-2.074l4.012-1.42l-15.527,15.57l-15.592,15.506
			c-5.191,5.175-10.447,10.287-15.683,15.418l-15.715,15.386l-15.84,15.264l-7.929,7.624l-7.987,7.567
			c-5.317,5.052-10.646,10.091-16.028,15.08c-2.688,2.498-5.354,5.016-8.066,7.489L82.286,214.286z"/>
	</g>
	<line fill="none" stroke="#000000" stroke-width="10" stroke-miterlimit="10" x1="34.428" y1="39.714" x2="34.428" y2="422.571"/>
	
		<line fill="none" stroke="#000000" stroke-width="10" stroke-miterlimit="10" x1="31.428" y1="418.571" x2="494.286" y2="418.571"/>
</g>
</svg>
