<?xml version="1.0" encoding="utf-8"?>
<!-- Generator: Adobe Illustrator 16.0.0, SVG Export Plug-In . SVG Version: 6.00 Build 0)  -->
<!DOCTYPE svg PUBLIC "-//W3C//DTD SVG 1.1//EN" "http://www.w3.org/Graphics/SVG/1.1/DTD/svg11.dtd">
<svg version="1.1" xmlns="http://www.w3.org/2000/svg" xmlns:xlink="http://www.w3.org/1999/xlink" x="0px" y="0px"
	 width="508.57px" height="450px" viewBox="0 0 508.57 450" enable-background="new 0 0 508.57 450" xml:space="preserve">
<g id="Layer_1">
	<path fill="#E6E7E8" d="M508.57,438c0,6.627-5.543,12-12.383,12H12.383C5.544,450,0,444.627,0,438V12C0,5.373,5.544,0,12.383,0
		h483.805c6.84,0,12.383,5.373,12.383,12V438z"/>
	
		<line fill="none" stroke="#000000" stroke-width="10" stroke-miterlimit="10" x1="-312.857" y1="-176.714" x2="-314.286" y2="-176.714"/>
	<line fill="none" stroke="#000000" stroke-width="10" stroke-miterlimit="10" x1="47.857" y1="50" x2="47.857" y2="401.429"/>
	
		<line fill="none" stroke="#000000" stroke-width="10" stroke-miterlimit="10" x1="42.857" y1="400.429" x2="465.714" y2="400.429"/>
</g>
<g id="Layer_2">
	<g>
		<rect x="108" y="140.429" fill="none" stroke="#000000" stroke-width="5" stroke-miterlimit="10" width="40" height="65.714"/>
		<line fill="none" stroke="#000000" stroke-width="5" stroke-miterlimit="10" x1="128" y1="140.429" x2="128" y2="114.714"/>
		<circle fill="#00AEEF" stroke="#000000" stroke-width="5" stroke-miterlimit="10" cx="127.857" cy="107.143" r="10.714"/>
		
			<line fill="none" stroke="#000000" stroke-width="5" stroke-miterlimit="10" x1="127.857" y1="206.893" x2="127.857" y2="235.393"/>
		<circle fill="#00AEEF" stroke="#000000" stroke-width="5" stroke-miterlimit="10" cx="128" cy="246.106" r="10.714"/>
		<line fill="none" stroke="#000000" stroke-width="5" stroke-miterlimit="10" x1="108" y1="190.429" x2="148" y2="190.429"/>
	</g>
	<g>
		<rect x="301.286" y="148" fill="none" stroke="#000000" stroke-width="5" stroke-miterlimit="10" width="40" height="65.714"/>
		<line fill="none" stroke="#000000" stroke-width="5" stroke-miterlimit="10" x1="321.286" y1="148" x2="321.286" y2="122.286"/>
		<circle fill="#00AEEF" stroke="#000000" stroke-width="5" stroke-miterlimit="10" cx="321.144" cy="114.714" r="10.714"/>
		
			<line fill="none" stroke="#000000" stroke-width="5" stroke-miterlimit="10" x1="321.144" y1="214.464" x2="321.144" y2="242.965"/>
		<circle fill="#00AEEF" stroke="#000000" stroke-width="5" stroke-miterlimit="10" cx="321.286" cy="253.678" r="10.714"/>
		<line fill="none" stroke="#000000" stroke-width="5" stroke-miterlimit="10" x1="301.286" y1="167" x2="341.286" y2="167"/>
	</g>
	<g>
		
			<rect x="202.286" y="220.624" fill="none" stroke="#000000" stroke-width="5" stroke-miterlimit="10" width="40" height="65.715"/>
		
			<line fill="none" stroke="#000000" stroke-width="5" stroke-miterlimit="10" x1="222.286" y1="220.624" x2="222.286" y2="194.91"/>
		<circle fill="#00AEEF" stroke="#000000" stroke-width="5" stroke-miterlimit="10" cx="222.144" cy="187.338" r="10.714"/>
		
			<line fill="none" stroke="#000000" stroke-width="5" stroke-miterlimit="10" x1="222.144" y1="287.089" x2="222.144" y2="315.589"/>
		<circle fill="#00AEEF" stroke="#000000" stroke-width="5" stroke-miterlimit="10" cx="222.286" cy="326.302" r="10.714"/>
		
			<line fill="none" stroke="#000000" stroke-width="5" stroke-miterlimit="10" x1="202.286" y1="255.624" x2="242.286" y2="255.624"/>
	</g>
	<g>
		
			<rect x="407.857" y="220.625" fill="none" stroke="#000000" stroke-width="5" stroke-miterlimit="10" width="40" height="65.715"/>
		
			<line fill="none" stroke="#000000" stroke-width="5" stroke-miterlimit="10" x1="427.857" y1="220.625" x2="427.857" y2="194.911"/>
		<circle fill="#00AEEF" stroke="#000000" stroke-width="5" stroke-miterlimit="10" cx="427.715" cy="187.339" r="10.714"/>
		<line fill="none" stroke="#000000" stroke-width="5" stroke-miterlimit="10" x1="427.715" y1="287.09" x2="427.715" y2="315.59"/>
		<circle fill="#00AEEF" stroke="#000000" stroke-width="5" stroke-miterlimit="10" cx="427.857" cy="326.303" r="10.714"/>
		
			<line fill="none" stroke="#000000" stroke-width="5" stroke-miterlimit="10" x1="407.857" y1="247.625" x2="447.857" y2="247.625"/>
	</g>
</g>
<g id="Layer_3">
	
		<line opacity="0.2" fill="none" stroke="#ED1C24" stroke-width="5" stroke-miterlimit="10" x1="47.857" y1="228.714" x2="465.714" y2="228.714"/>
	
		<line opacity="0.2" fill="none" stroke="#000000" stroke-width="5" stroke-miterlimit="10" x1="172.857" y1="71.857" x2="172.857" y2="400.429"/>
	
		<line opacity="0.2" fill="none" stroke="#000000" stroke-width="5" stroke-miterlimit="10" x1="275.714" y1="71.857" x2="275.714" y2="400.429"/>
	
		<line opacity="0.2" fill="none" stroke="#000000" stroke-width="5" stroke-miterlimit="10" x1="385.714" y1="71.857" x2="385.714" y2="400.429"/>
</g>
</svg>
