<?xml version="1.0" encoding="utf-8"?>
<!-- Generator: Adobe Illustrator 16.0.0, SVG Export Plug-In . SVG Version: 6.00 Build 0)  -->
<!DOCTYPE svg PUBLIC "-//W3C//DTD SVG 1.1//EN" "http://www.w3.org/Graphics/SVG/1.1/DTD/svg11.dtd">
<svg version="1.1" xmlns="http://www.w3.org/2000/svg" xmlns:xlink="http://www.w3.org/1999/xlink" x="0px" y="0px"
	 width="508.57px" height="450px" viewBox="0 0 508.57 450" enable-background="new 0 0 508.57 450" xml:space="preserve">
<g id="Layer_1">
	<path fill="#E6E7E8" d="M508.57,438c0,6.627-5.543,12-12.383,12H12.383C5.544,450,0,444.627,0,438V12C0,5.373,5.544,0,12.383,0
		h483.805c6.84,0,12.383,5.373,12.383,12V438z"/>
</g>
<g id="Layer_2">
	<path fill="#414042" d="M404.143,408.429c0,6.628-5.373,12-12,12H117.571c-6.627,0-12-5.372-12-12V39.571c0-6.627,5.373-12,12-12
		h274.571c6.627,0,12,5.373,12,12V408.429z"/>
</g>
<g id="Layer_3">
	<rect x="105.571" y="79.286" fill="#6D6E71" width="298.571" height="57.143"/>
	<rect x="105.571" y="136.429" fill="#808285" width="298.572" height="57.143"/>
	<rect x="105.571" y="193.571" fill="#6D6E71" width="298.571" height="57.144"/>
	<rect x="105.571" y="250.715" fill="#808285" width="298.572" height="57.144"/>
	<rect x="105.571" y="307.858" fill="#6D6E71" width="298.571" height="57.145"/>
</g>
<g id="Layer_4">
	<rect x="200.142" y="44" fill="none" width="104.286" height="17.143"/>
	<text transform="matrix(1 0 0 1 200.1421 59.6201)" fill="#FFFFFF" font-family="'MyriadPro-Regular'" font-size="22">Data Table</text>
	<rect x="221.57" y="97.857" fill="none" width="61.429" height="20"/>
	<text transform="matrix(1 0 0 1 221.5703 113.4771)" fill="#FFFFFF" font-family="'MyriadPro-Regular'" font-size="22">Data1</text>
	<rect x="221.142" y="151" fill="none" width="61.428" height="20"/>
	<text transform="matrix(1 0 0 1 221.1421 166.6196)" fill="#FFFFFF" font-family="'MyriadPro-Regular'" font-size="22">Data2</text>
	<rect x="221.571" y="215" fill="none" width="61.429" height="20"/>
	<text transform="matrix(1 0 0 1 221.5708 230.6191)" fill="#FFFFFF" font-family="'MyriadPro-Regular'" font-size="22">Data3</text>
	<rect x="221.143" y="268.143" fill="none" width="61.428" height="20"/>
	<text transform="matrix(1 0 0 1 221.1426 283.7617)" fill="#FFFFFF" font-family="'MyriadPro-Regular'" font-size="22">Data4</text>
	<rect x="224.356" y="320.429" fill="none" width="61.429" height="20"/>
	<text transform="matrix(1 0 0 1 224.3564 336.0488)" fill="#FFFFFF" font-family="'MyriadPro-Regular'" font-size="22">Data5</text>
	<rect x="223.928" y="373.571" fill="none" width="61.428" height="20"/>
	<text transform="matrix(1 0 0 1 223.9282 389.1914)" fill="#FFFFFF" font-family="'MyriadPro-Regular'" font-size="22">Data6</text>
</g>
</svg>
