<?xml version="1.0" encoding="utf-8"?>
<!-- Generator: Adobe Illustrator 16.0.0, SVG Export Plug-In . SVG Version: 6.00 Build 0)  -->
<!DOCTYPE svg PUBLIC "-//W3C//DTD SVG 1.1//EN" "http://www.w3.org/Graphics/SVG/1.1/DTD/svg11.dtd">
<svg version="1.1" xmlns="http://www.w3.org/2000/svg" xmlns:xlink="http://www.w3.org/1999/xlink" x="0px" y="0px"
	 width="508.57px" height="450px" viewBox="0 0 508.57 450" enable-background="new 0 0 508.57 450" xml:space="preserve">
<g id="Layer_1">
	<path fill="#E6E7E8" d="M508.57,438c0,6.627-5.543,12-12.383,12H12.383C5.544,450,0,444.627,0,438V12C0,5.373,5.544,0,12.383,0
		h483.805c6.84,0,12.383,5.373,12.383,12V438z"/>
</g>
<g id="Layer_2">
	<path fill="#FFFFFF" stroke="#FFFFFF" stroke-width="5" stroke-miterlimit="10" d="M466.143,62.857h-430
		c0,0,15.714-39.571,62.857-39.571s305.714,0,305.714,0S450.428,19.571,466.143,62.857z"/>
	<line fill="none" stroke="#FFFFFF" stroke-width="5" stroke-miterlimit="10" x1="36.143" y1="62.857" x2="36.143" y2="403.286"/>
	<line fill="none" stroke="#FFFFFF" stroke-width="5" stroke-miterlimit="10" x1="36.143" y1="403.286" x2="466.143" y2="403.286"/>
	<line fill="none" stroke="#FFFFFF" stroke-width="5" stroke-miterlimit="10" x1="466.143" y1="403.286" x2="466.143" y2="62.857"/>
	<line fill="none" stroke="#FFFFFF" stroke-width="5" stroke-miterlimit="10" x1="36.143" y1="114.714" x2="466.143" y2="114.714"/>
	<line fill="none" stroke="#FFFFFF" stroke-width="5" stroke-miterlimit="10" x1="36.143" y1="173.286" x2="466.143" y2="173.286"/>
	<line fill="none" stroke="#FFFFFF" stroke-width="5" stroke-miterlimit="10" x1="36.143" y1="225" x2="466.143" y2="225"/>
	<line fill="none" stroke="#FFFFFF" stroke-width="5" stroke-miterlimit="10" x1="36.143" y1="279" x2="466.143" y2="279"/>
	<line fill="none" stroke="#FFFFFF" stroke-width="5" stroke-miterlimit="10" x1="36.143" y1="336.143" x2="466.143" y2="336.143"/>
	<line fill="none" stroke="#FFFFFF" stroke-width="5" stroke-miterlimit="10" x1="96.143" y1="62.857" x2="96.143" y2="403.286"/>
	<line fill="none" stroke="#FFFFFF" stroke-width="5" stroke-miterlimit="10" x1="161.857" y1="62.857" x2="161.857" y2="403.286"/>
	<line fill="none" stroke="#FFFFFF" stroke-width="5" stroke-miterlimit="10" x1="223.286" y1="62.857" x2="223.286" y2="403.286"/>
	<line fill="none" stroke="#FFFFFF" stroke-width="5" stroke-miterlimit="10" x1="297.571" y1="62.857" x2="297.571" y2="403.286"/>
	<line fill="none" stroke="#FFFFFF" stroke-width="5" stroke-miterlimit="10" x1="393.286" y1="62.857" x2="393.286" y2="403.286"/>
</g>
<g id="Layer_3">
	<rect x="36.143" y="109" fill="#EF4623" stroke="#FFFFFF" stroke-width="5" stroke-miterlimit="10" width="60" height="64.286"/>
	
		<rect x="36.143" y="173.286" fill="#F58020" stroke="#FFFFFF" stroke-width="5" stroke-miterlimit="10" width="60" height="51.659"/>
	
		<rect x="36.143" y="224.945" fill="#FAA61A" stroke="#FFFFFF" stroke-width="5" stroke-miterlimit="10" width="60" height="54.055"/>
	<rect x="36.143" y="279" fill="#F37021" stroke="#FFFFFF" stroke-width="5" stroke-miterlimit="10" width="60" height="57.143"/>
	
		<rect x="36.143" y="336.143" fill="#F47D20" stroke="#FFFFFF" stroke-width="5" stroke-miterlimit="10" width="60" height="67.144"/>
	
		<rect x="96.143" y="62.857" fill="#F15F22" stroke="#FFFFFF" stroke-width="5" stroke-miterlimit="10" width="65.714" height="51.857"/>
	
		<rect x="96.143" y="114.714" fill="#F47521" stroke="#FFFFFF" stroke-width="5" stroke-miterlimit="10" width="65.714" height="58.571"/>
	
		<rect x="96.143" y="173.286" fill="#F26722" stroke="#FFFFFF" stroke-width="5" stroke-miterlimit="10" width="65.714" height="51.659"/>
	
		<rect x="96.143" y="224.945" fill="#B71318" stroke="#FFFFFF" stroke-width="5" stroke-miterlimit="10" width="65.714" height="54.055"/>
	
		<rect x="96.143" y="279" fill="#910508" stroke="#FFFFFF" stroke-width="5" stroke-miterlimit="10" width="65.714" height="57.143"/>
	
		<rect x="96.143" y="336.143" fill="#F78D1E" stroke="#FFFFFF" stroke-width="5" stroke-miterlimit="10" width="65.714" height="67.144"/>
	
		<rect x="161.857" y="62.857" fill="#8D0405" stroke="#FFFFFF" stroke-width="5" stroke-miterlimit="10" width="61.428" height="51.857"/>
	
		<rect x="161.857" y="114.714" fill="#B51218" stroke="#FFFFFF" stroke-width="5" stroke-miterlimit="10" width="61.428" height="58.571"/>
	
		<rect x="161.857" y="173.286" fill="#800000" stroke="#FFFFFF" stroke-width="5" stroke-miterlimit="10" width="61.428" height="51.659"/>
	
		<rect x="161.857" y="224.945" fill="#890203" stroke="#FFFFFF" stroke-width="5" stroke-miterlimit="10" width="61.428" height="54.055"/>
	
		<rect x="161.857" y="279" fill="#910508" stroke="#FFFFFF" stroke-width="5" stroke-miterlimit="10" width="61.428" height="57.143"/>
	
		<rect x="161.857" y="336.143" fill="#AF1116" stroke="#FFFFFF" stroke-width="5" stroke-miterlimit="10" width="61.428" height="67.144"/>
	
		<rect x="223.286" y="62.857" fill="#F58020" stroke="#FFFFFF" stroke-width="5" stroke-miterlimit="10" width="74.286" height="51.857"/>
	
		<rect x="223.286" y="114.714" fill="#F36C21" stroke="#FFFFFF" stroke-width="5" stroke-miterlimit="10" width="74.286" height="58.571"/>
	
		<rect x="223.286" y="173.286" fill="#FFCF01" stroke="#FFFFFF" stroke-width="5" stroke-miterlimit="10" width="74.286" height="51.714"/>
	<rect x="223.286" y="225" fill="#FEBE10" stroke="#FFFFFF" stroke-width="5" stroke-miterlimit="10" width="74.286" height="54"/>
	
		<rect x="223.286" y="279" fill="#94070A" stroke="#FFFFFF" stroke-width="5" stroke-miterlimit="10" width="74.286" height="57.143"/>
	
		<rect x="223.286" y="336.143" fill="#8B0304" stroke="#FFFFFF" stroke-width="5" stroke-miterlimit="10" width="74.286" height="67.144"/>
	
		<rect x="297.571" y="62.857" fill="#F9A01B" stroke="#FFFFFF" stroke-width="5" stroke-miterlimit="10" width="95.715" height="51.857"/>
	
		<rect x="297.571" y="114.714" fill="#FAA41A" stroke="#FFFFFF" stroke-width="5" stroke-miterlimit="10" width="95.715" height="58.571"/>
	
		<rect x="297.571" y="173.286" fill="#FBAB18" stroke="#FFFFFF" stroke-width="5" stroke-miterlimit="10" width="95.715" height="51.659"/>
	
		<rect x="297.571" y="224.945" fill="#660000" stroke="#FFFFFF" stroke-width="5" stroke-miterlimit="10" width="95.715" height="54.055"/>
	
		<rect x="297.571" y="279" fill="#470000" stroke="#FFFFFF" stroke-width="5" stroke-miterlimit="10" width="95.715" height="57.143"/>
	
		<rect x="297.571" y="336.143" fill="#F36C21" stroke="#FFFFFF" stroke-width="5" stroke-miterlimit="10" width="95.715" height="67.144"/>
	
		<rect x="393.286" y="62.857" fill="#F26522" stroke="#FFFFFF" stroke-width="5" stroke-miterlimit="10" width="72.856" height="51.857"/>
	
		<rect x="393.286" y="114.714" fill="#F5841F" stroke="#FFFFFF" stroke-width="5" stroke-miterlimit="10" width="72.856" height="58.571"/>
	
		<rect x="393.286" y="173.286" fill="#FFF200" stroke="#FFFFFF" stroke-width="5" stroke-miterlimit="10" width="72.856" height="51.714"/>
	<rect x="393.286" y="225" fill="#470000" stroke="#FFFFFF" stroke-width="5" stroke-miterlimit="10" width="72.856" height="54"/>
	
		<rect x="393.286" y="279" fill="#A50D12" stroke="#FFFFFF" stroke-width="5" stroke-miterlimit="10" width="72.856" height="57.143"/>
	
		<rect x="393.286" y="336.143" fill="#7D0000" stroke="#FFFFFF" stroke-width="5" stroke-miterlimit="10" width="72.856" height="67.144"/>
	
		<rect x="36.143" y="62.857" fill="#F47920" stroke="#FFFFFF" stroke-width="5" stroke-miterlimit="10" width="60" height="51.857"/>
	<g id="Layer_4">
	</g>
</g>
<g id="Layer_5">
	<rect x="198.428" y="35.174" fill="none" width="115.714" height="15.714"/>
	<text transform="matrix(1 0 0 1 198.4282 50.7939)" font-family="'MyriadPro-Bold'" font-size="22">HEAT MAP</text>
</g>
</svg>
